<?xml version="1.0" standalone="no"?>
<!DOCTYPE svg PUBLIC "-//W3C//DTD SVG 20010904//EN"
 "http://www.w3.org/TR/2001/REC-SVG-20010904/DTD/svg10.dtd">
<svg version="1.0" xmlns="http://www.w3.org/2000/svg"
 width="246.000000pt" height="246.000000pt" viewBox="0 0 246.000000 246.000000"
 preserveAspectRatio="xMidYMid meet">

<g transform="translate(0.000000,246.000000) scale(0.100000,-0.100000)"
fill="#000000" stroke="none">
<path d="M770 1927 c-14 -8 -100 -67 -190 -132 -91 -66 -209 -150 -263 -189
-98 -68 -117 -92 -117 -143 0 -25 484 -887 522 -929 31 -35 75 -38 133 -10 27
14 88 33 135 42 92 18 89 18 551 -37 259 -30 248 -42 289 314 12 104 19 191
16 195 -15 14 -24 -22 -40 -153 -39 -322 -39 -319 -80 -335 -22 -8 -73 -4
-451 39 -311 35 -328 38 -342 57 -20 27 -21 18 47 509 11 80 29 209 39 288 32
237 39 270 60 291 23 23 36 23 213 1 73 -9 210 -25 303 -36 94 -11 189 -22
213 -25 49 -6 82 -36 81 -73 0 -14 -8 -92 -17 -173 -10 -82 -15 -148 -11 -148
19 0 28 39 43 180 23 209 13 233 -110 246 -57 6 -60 8 -79 48 -31 63 -47 68
-223 62 l-152 -4 -20 37 c-29 57 -66 69 -147 47 -63 -16 -65 -16 -90 4 -32 25
-86 25 -133 1 l-35 -19 -33 29 c-36 32 -72 37 -112 16z m88 -33 c34 -24 26
-34 -22 -28 -40 6 -50 3 -93 -28 -110 -80 -157 -111 -200 -129 -25 -11 -47
-18 -48 -17 -7 8 301 218 320 218 11 0 31 -7 43 -16z m201 -13 c11 -7 10 -11
-7 -20 -11 -6 -31 -11 -44 -11 -13 0 -36 -7 -53 -16 -29 -15 -128 -44 -150
-44 -5 0 35 22 90 49 99 49 137 59 164 42z m218 -23 c24 -22 31 -48 12 -48 -6
0 -17 7 -25 15 -9 8 -30 15 -48 15 -19 0 -53 -7 -76 -15 -23 -8 -63 -15 -89
-14 -45 1 -43 2 54 34 121 40 142 41 172 13z m-483 -33 c-10 -8 -23 -14 -29
-14 -5 0 -1 6 9 14 11 8 24 15 30 15 5 0 1 -7 -10 -15z m873 -50 c22 -16 38
-55 21 -55 -5 0 -21 9 -35 20 -23 18 -41 20 -178 20 -84 0 -181 3 -216 8 l-64
7 70 6 c39 3 140 6 225 7 123 2 160 -1 177 -13z m-597 -10 c-14 -8 -46 -14
-72 -15 -34 0 -54 -6 -72 -22 l-25 -23 -2 -532 c-2 -423 0 -535 10 -547 21
-25 -5 -20 -31 6 l-21 21 6 533 c4 371 9 539 17 554 16 30 45 39 135 39 74 0
78 -1 55 -14z m-220 -14 c0 -16 -21 -25 -84 -38 -32 -7 -67 -20 -77 -29 -28
-25 -28 -33 26 -369 8 -49 26 -162 39 -250 72 -462 62 -417 100 -452 36 -34
30 -46 -16 -31 -14 5 -31 21 -36 36 -6 15 -27 135 -47 267 -20 132 -45 296
-55 365 -71 464 -67 419 -42 450 26 32 192 76 192 51z m175 -58 c-6 -39 -40
-278 -65 -463 -35 -260 -38 -250 -32 115 3 207 9 355 15 363 5 6 27 12 48 12
36 0 38 -1 34 -27z m-414 -10 c-5 -11 -42 -32 -80 -47 -71 -28 -101 -54 -101
-88 0 -10 24 -79 54 -155 30 -76 80 -203 111 -283 31 -80 78 -200 105 -267 27
-67 52 -139 55 -160 12 -67 26 -103 48 -118 12 -8 16 -15 9 -15 -34 0 -52 27
-95 137 -60 152 -168 433 -212 548 -19 50 -52 137 -74 194 -56 144 -53 184 17
206 13 4 56 22 95 40 40 18 73 31 75 30 2 -2 -1 -12 -7 -22z m226 -255 c-4
-149 -8 -357 -8 -462 -1 -105 -3 -180 -6 -166 -2 14 -10 66 -18 115 -8 50 -26
164 -40 255 -14 91 -34 221 -45 290 -22 134 -27 196 -17 206 5 6 102 30 131
33 6 1 7 -109 3 -271z m-197 17 c27 -184 57 -378 75 -489 8 -50 13 -91 11 -93
-4 -4 -22 41 -151 372 -47 121 -92 235 -100 253 -18 40 -19 76 -2 90 6 5 39
21 72 35 l60 26 7 -27 c4 -15 16 -90 28 -167z m-280 135 c0 -12 -16 -30 -40
-46 -45 -30 -58 -63 -40 -102 6 -15 91 -166 188 -337 161 -282 237 -434 230
-456 -6 -17 -468 806 -468 834 0 28 12 41 85 96 49 36 45 35 45 11z m34 -138
c98 -260 140 -369 162 -421 8 -18 13 -35 11 -37 -6 -6 -260 447 -265 473 -4
19 1 31 19 44 13 10 29 19 34 19 6 0 23 -35 39 -78z"/>
<path d="M1106 1701 c-18 -19 -24 -57 -65 -376 -28 -214 -59 -453 -71 -543
-16 -119 -7 -126 182 -147 73 -8 212 -24 308 -35 96 -11 192 -20 212 -20 65 0
70 12 96 233 13 109 21 201 18 205 -16 15 -25 -24 -41 -168 -18 -169 -28 -227
-43 -242 -5 -5 -57 -3 -133 6 -68 8 -205 24 -304 36 -278 31 -263 29 -270 51
-4 12 0 73 9 137 9 64 25 187 36 272 77 596 71 560 92 573 12 8 59 6 165 -6
456 -51 509 -58 523 -72 12 -13 12 -33 -4 -162 -10 -82 -20 -160 -23 -175 -4
-21 -2 -28 11 -28 9 0 16 3 16 8 0 4 9 83 21 175 28 230 43 212 -201 242 -69
8 -200 24 -291 35 -204 25 -222 25 -243 1z"/>
<path d="M2081 1486 c-85 -23 -156 -47 -158 -53 -3 -7 14 -21 37 -33 l41 -21
-21 -27 c-41 -51 -135 -123 -212 -162 -152 -76 -305 -88 -458 -37 -41 14 -79
22 -83 18 -12 -12 57 -66 123 -97 212 -101 519 -43 723 136 21 18 39 31 41 29
2 -2 11 -19 20 -36 22 -44 33 -41 47 10 6 23 17 62 25 87 19 67 54 208 54 220
0 15 -9 13 -179 -34z m134 -43 c-7 -27 -23 -86 -36 -132 -21 -82 -22 -83 -36
-57 -7 14 -16 26 -18 26 -3 0 -39 -27 -81 -60 -137 -109 -301 -170 -455 -170
-74 0 -175 21 -219 46 -23 13 -22 14 25 7 157 -22 310 10 445 95 62 39 190
159 190 178 0 6 -14 21 -32 32 l-32 21 29 6 c17 4 59 15 95 25 145 41 142 41
125 -17z"/>
</g>
</svg>
