<svg xmlns="http://www.w3.org/2000/svg" width="2112.004" height="2880.008" viewBox="0 0 6600 9000"><path fill="none" stroke-width="10" stroke="#fff" d="M5627 2179l5 1 12 12c-2.36 2.53-7.69 14.54-7.17 17.96.4 2.61 2.22 4.86 3.6 7.04 5.59 8.77 10.65 12.74 21.57 12l5 7-4-1 2 7c-.2 6.49 3.61 7.11 9 9-1.64-4.13-4.55-8.59-3-13l5 14 8 6 2-10 4 7-2 14 2 10c-5.04 6.29-4.27 10.88-7.33 18l-7.32 16c-1.46 2.58-5.07 7.55-5.62 10l.92 12.58-.56 12.42 1.87 15-.92 13 .96 13-.68 9.91 1.5 19.09-.82 10v25l-.82 12 .64 7-1.82 22-2.83 33-1.34 20-5 51-11.41 81c-8.45 54.44-19.39 108.37-32.07 162l-20.47 79-35.46 128-18.42 61-12.94 35-12.26 33-12.6 30-9.2 27c-1.59-.03-3.04-.34-4.42.77-2.04 1.65-4.19 16.76-4.84 20.23-4.38 23.31-9.66 46.18-16.17 69l-5.82 19-2.41 10c-7.04 19.15-17.48 36.8-26.59 55l-12.2 22c-1.38 2.29-6.05 8.47-6.41 10.42-.63 3.4 3.24 9.28 4.55 12.58l9.71 28 4.08 17 6.85 21 6.97 19 2.27 8 2.41 6c.84 3.78-.92 4.9-1.13 9-.37 6.87 1.25 9.31 2.88 15.28.79 2.88-.16 3.69 1.27 6.72-1.07 4.65-1.47 6.48 3 9-.3 3.54-.4 3.39 2 6v5l-3 1h5c1.64 5.78 1.3 9.48-1 15l-3-1c3.83 6.7.22 5.1.86 10.72 1.03 9.1-.63 15.4-1.71 24.28-.52 4.29-2.02 13.24-4.15 16.83-2.45 4.11-8.45 6.48-10.86 10.35-1.34 2.15-3.02 9.01-3.86 11.82l-7.08 20c-3.81 9.51-4.35 8.95-8.94 17l-17.05 29-10.84 14.83-3.04 5.26-15.37 17.69c-1.73 1.52-2.98 2.16-4.96 3.22l1 2-10 8.86c-6.37 5.39-15.67 11.57-23 15.63l-11.28 6.36-18.72 8.78-18 18.2-10 8.57c-3.24 2.46-7.87 5.1-10.68 7.92-6.68 6.71-14.88 23.1-20.06 31.72l-12.73 16.96-15.32 19-30.21 37.96-25.83 29.04c-6.63 7.4-5.75 8.43-8.48 11.83l-11.08 11.87c-18.65 19.47-39.13 37.07-59.61 54.57-6.67 5.7-21.03 17.44-30 16.73 2.13 15.82 15.18 43.41 21.78 59l33 85 52.55 154 20.65 60 21.6 71 5.14 19c6.79 22.87 13.88 46.05 23.28 68 4.73 11.03 14.77 27.43 16.4 38v7c.31 7.56 2.79 11.32 5.74 18l11.61 25c9.21 18.41 29.02 57.06 39.77 73l16.28 21 5.62 7 2.8 6.58 4.25 6.42c4.04 6.43 3.03 7.79 9.53 13l-2-6c1.73 1.5 5.76 5.33 6.77 7.26 1.5 2.82.1 3.61 3.41 7.16l10.82 9.74c20.82 18.59 17.01 15.92 40 31.51 4.12 2.8 19.16 11.77 13 17.33v4l9 2v14l4-2-2 5 4 5 1-4c.67 2.62 1.04 5.51 2.5 7.82 1.91 2.99 5.42 4.54 4.68 9.19-.88 5.59-6.26 11.07-9.76 15.16l-11 14.83-58.59 77c-15.54 20.86-32.28 40.65-49.66 60l-33.21 37-58.96 58.04-20 19.87-54 48.81-71.42 59.92-18.58 13.82c-4.17 2.73-10.4 6.15-13.78 9.72-2.64 2.8-3.83 6.44-5.52 9.82l-12.15 24-8.61 15c-14.47 23.43-33.23 47.75-51.86 68l-12.82 15.58c-2.32 2.84-2.05 4.33-5.26 6.42.24 6.65-3.56 10.19-7.58 15-7.61 9.12-4.53 7.27-14.42 16.99l-11.05 11.14c-17.48 16.06-36.7 30.07-55.94 43.91l-14.01 10.15-27 17.36-83 46.13-10 4.58-38 18.52-94 43.36-14 5.72-71 30.99-39 16.46-55 21.49-57 22.4-27 10.38c-3.25 1.22-7.82 1.9-9 5.42l-4-1-1.57 2.92L4295 5847l-15 5.23-16.17 8.16-30.83 15.02-45 21.06-36 16.67-17 6.28-47 17.63-63 23.29-56 20.71-26 8.95c5.27 5.2 15.09 3.51 22 4.17l54 4.66c4.06.4 17.88.97 20.71 2.6 1.53.88 1.45 1.28 2.29 2.55h2c4.23-6.31 15.15-.74 21 0 4.7.54 6.68-2.06 10 3.02l4-1-1 5 6-1-2 2 26 3.17c8.48.88 17.54 2.68 26 .92h8.04l5.96 1.18h5.83L4165 6019h32l31.44-1.89 20.56-2.63 9 1.73h10l-3-4.21 3 3 11.09-4.3 22.91-2.7 2 4-1-5 6 3h-1l-2 2c5.11-.68 4.73-4.18 9.1-5.97l34.9-5.61c6.68-1.03 9.22-2.48 15 1.58 3.03-5.38 8.64-4.67 14.17-4.94H4398l20-1.06 66-6.17 9.17-2.21h8.83l44-6.33c36.1-4.99 72.23-10.38 108-17.49l36.58-8.22 8.42-1.47 21-5.11c.75 3.99 2.21 4.34 6 4l-1-3 1-3c5.65-2.74 5.66-1.92 11-3.26 3.5-.87 11.61-6.03 10 5.26l10.01-3c-.53-2.48-1.52-7.12 0-9.35 1.35-1.97 6.69-3.73 8.99-4.65l20-8.76c2.41-1.18 7.11-4.02 9.76-3.29 2.76.76 4.28 4.69 5.24 7.05h-1l-2 2 48-23.69c44.46-24.1 84.91-53.91 106.3-101.31 6.62-14.65 13.51-36.91 13.7-53 .31-27.07-2.13-42-9.42-68-2.3-8.21-.58-15.95-5.58-21l1.07-4c.49-3.59-1.7-14.21-2.78-18l-8.62-28c-2.07-6.21-2.84-13.87-9.67-16 1.36-3.8 2.64-4.17 6-2l-2 2c7.72-1.19 10.73 1.75 17 6.03 12.21 8.34 20.66 17.71 27 30.97h-2c3.36 3.95 7.28 7.6 10.05 12 5.14 8.15 9.28 19.84 12.45 29 6.62 19.12 11.47 43.75 11.5 64 .02 12.03.29 24.06-1.43 36-6.03 41.87-28.03 82.08-57.58 112-18.74 18.97-42.93 36.2-65.99 49.58l-22 11.73-20 10.91-18 7.64c-66.03 29.42-135.9 49.74-207 62.56l-29 5.15-20 2.56-14 2.87 2 3-4-1 4 2c-.76 2.21-1.15 3.73-3.06 5.33-2.55 2.14-13.28 3.29-16.94 3.8-17.03 2.37-41.74 8.78-58 5.87l1 3-26 2.85h-7.58l-10.42 1.87-10 .56-62 7.55c-40.26 4.03-80.52 6.88-121 7.17h-14l-34 2.91c-26.91 1.85-54 4.32-81 4.09l-16 1h-30l-10.28-1.01c-6.63-.58-10.63 1.2-11.72-8.99l-27 1-19 1-17 1h-17l-16 1h-46l-12 .95h-17l-14-.95h-25l-21-1-13-1-24-1.83-24-2.3c-5.08-.71-19.81-3.28-24-2.49l-21 8.2-34 14-100 40.02-35 12.84c-7.61 2.76-13.7 6.15-22 6.56v5l-50 10.17-13 .98-33 4.57-31 2.85-18-.57-6-1-1-3c-7.96.79-6.02-2.28-13-2.95l-44-6.52-13-3.11c-32.41-4.85-64.32-12.92-96-21.27l-35-8.57-63-18.6-33-10.7-59-21.28c-5.11-1.78-18.55-7.57-23-7.53l-26 4.73-43 7.55c-49.15 8.19-98.55 15.86-148 21.97l-49 5.44-40 4.67-52 4.34-48 3.83-15 1-22 1-14 1-17 1h-16l-17 1h-29l-16 1h-24l-14-1h-22l-15-1h-20c-8.75-.01-9.68-1.12-17-1.83l-35-3-30-2.33-39-6.42c-34.71-5.38-69.16-11.47-103-21.13l-36-11.62-35-11.12-25-10.54-25-9.87-51-24.45c-45.55-24.63-94.14-58.37-131-94.7l-25.43-27.99c-18.54-21.77-43.26-55.82-54.57-82l-13.55-30c-5.7-14.13-12.31-33.27-15.98-48l-2.7-13-7.66-35v-12l-1.11-15 1.67-19c.45-2.2 1.12-5.57 2.89-7.07 3.06-2.58 11.51-2.92 15.44-2.93l.66 14.91L1709 5669l5-2-1.11 17 9.38 28.91 4.73 6.09h-1l-2-2c1.55 6.62 9.54 26.33 12.64 33 1.96 4.23 3.23 9.53 7.36 12-.91 6.64 3.25 11.28 6.29 17l17.11 32c2.87 4.75 5.57 10.35 10.6 13 .96 6.25 3.23 7.08 6.55 12.09l21.1 28.91c30.9 40.08 68.39 72.03 110.35 100 41.23 27.48 76.31 44.12 122 62.4l27 10.91 34 10.71 30 9.55 51 12.22 38 6.46 56 8.58 33 2.34 32 2.92 12 .91h26l17 1 33 .68 36-.68 17-1h24l35-2 18-1 26-1 20-1.83c6.27-.61 10 .56 15-4.17l-11-1 1-4 16.09-6.89c3.54-.78 2.71 1.62 16.91-3.11l-4-4 6 4-2 2c14.44-1.17 26.44-2.54 37.93-12.01 6.23-5.14 1.36-7.66 7.2-10.95l8.87-3.93 27-13.22 48-25.89-42-15c-3.85-1.31-13.49-5.32-17-4.71-6.22 1.08-10.8 5.64-14 10.71 3.58-1.34 5.26-2.35 9-1l-5 2-2 2c-1.47 8.79-5.49 4.03-9.74 6.05-3.76 1.78-1.5 4.07-8.26 3.95l-1 4-5 1c-6.3-3.86-5.84 4.28-13 2l9.04-9.33L2707 5980l-30-10.58c-43.09-12.65-85.43-27.9-127-44.82l-28-11.02-30-14.88-13-7.18-17-5.26-16-5.92-23-7.72-8-3.85-16-6.22-12-5.51-73-32.36-12-6.43-38-17.29-17-4.25c-9.51-3.45-16.74-7.62-27-10.06l-29-7.28c-2.88-.71-9.45-1.62-11.21-3.88-2.03-2.61.07-5.25.7-7.07 1.75-5.07-1.07-4.01 3.51-12.42-11.15-4.09-20.6-11.9-31-17.45l-58-30.85-24-13.84-82-46.44c-27.21-15.79-54.07-31.52-80-49.4l-15-9.8-33.01-25.56-12.9-10.12-7.13-7.12c-24.15-21.84-47.12-44.61-68.45-69.25l-17.64-21.17-10.46-11.3c-3.5-4.31-2.19-5.76-5.59-9.42l-15.82-14.45-13-12.74-19-17.13c-27.69-26.49-53.66-55-78.71-83.96l-18.8-22.95-5.59-5.48-7.67-10.73-15.35-24.12c-3.47-5.72-3.71-8.21-8.97-13.68l-50.91-42.46-15-13.15-57-47.84c-25.95-21.77-51.53-44.22-76-67.63l-62.04-63.96-36.96-36-42-39.75c-5.75-4.82-14.54-9.81-7-17.25-2.11-4.04.13-3.66-.54-6.92-.47-2.27-2.71-3.61-2.91-6-.27-3.33 8.03-14.9 10.11-18.08 8.37-12.8 18.7-25.22 25.19-39-6.62-3.97-4.16-7.57 0-13l22.16-26 26.81-24.28 5.77-7.35 5.31-5.47c3.03-4.17 5.74-11.15 7.99-15.9l4.79-9 8.74-22 23.97-61 8.33-26 9.7-32 7.43-25c14.02-51.84 24.19-105.17 33.73-158l13.22-75 19.62-99 11.95-51c2.46-9.83 6.61-24.26 6.63-34l1-41 3-32v-10l2-18c.01-9.11 1.09-18 2.42-27l3.48-29c.19-2.43.87-9.01 0-10.91-1.35-2.89-15.54-13.62-18.9-16.09l2-3-4-1c-.46-4.63-1.42-5.46-6-6-1.52-6.61-4.73-8.19-11-8v-5.14c-1.44.17-2.37.39-3.83 0-2.75-1.14-15.53-13.21-18.17-15.86-2.12-2.13-5.42-5.14-6.39-8-1.93-5.69 3.63-6.43-.81-12.01l-28.8-24.41-40-38.58-13.91-14c-5.67-6.09-5.75-9.02-14.09-11v4c-2.99-2.08-3.86-4.38 0-6l1-2-22.12-25c-3.88-4.94-9.44-13.2-14.88-16-.61-4.91-7.5-11.85-10.63-16-6.37-8.45-22.51-28.52-26.37-37l-3 1c.24-5.71-3.92-10.35-6.81-15-5.14-8.28-17.1-24.92-20.19-33l-6 2c-3.37-2.57-5.69-1.41-6-6l-3-2 9-4-2-4-7 3c1.71-6.11 1.51-6.6-2-12 .95-4.12-.5-5.16-4-7-.19-7.73-3.02-7.27-6.27-13.17-1.27-2.31-2.68-6.15-5.4-7.13-1.79-.65-4.58.71-6.33 1.3l-12.07-29.99c-2.09-3.43-7.76-7.88-10.93-11.01-3.77-3.73-7.47-9.33-13-10l-6.48-8.04-4.27-6.75-5.5-5.42-10.7-14.8-21.6-35.99-5.2-9c-5.76-8.58-25.79-33.7-28.55-41-1.37-3.29-1.49-5.8 0-9 1.66-3.24 4.44-5.11 2.87-9l-10.42-15.96-3.05-6.21-6.67-10.83-8.74-17-4.79-8-13.26-29-7.5-23-10.45-26-7.35-20-4.21-13-7.69-14-4.69-10-7.19-18c-1.1-2.64-3.9-8.26-3.77-10.96.12-2.44 1.49-3.58 3.01-5.28 4.43-4.96 5.71-5.28 12.2-6.76l-13.89-27-13.06-28-25.33-35-32.17-50-8.68-14c-18.34-32.13-32.51-66.41-45.45-101l-11.61-37-20.23-32-29.38-47-16.98-27.82c-2.9-3.52-9.45-7.57-13.22-10.54-6.03-4.75-7.59-6.69-12.51-12.17-1.87-2.08-3.22-2.85-4.73-5.52-2.24-3.94-2.6-11.09-3.76-15.95l-6 4-1-6 2 3 1-3 3 1-16.75-35c-3.92-7.87-4.22-12.27-12.25-17 2.11-8.24-1.3-10.62-4.69-18-4.78-10.4-7.97-22.11-15.31-31l2-2-5-1c.64-6.34-1.93-16.46-5.08-21.99-2.88-5.05-3.55-2.91-5.92-10.01 2.75-5.27-5.03-8.25 0-10l-4.54-18-1.6-11.99L638 2569l1 2-1.02-22c.28-1.88 3.83-12.32 4.95-13.73 1.44-1.79 13.82-7.44 16.16-8.12 1.55-.21 4.25-.15 5.91 0 3.59-.16 6.82.25 10-1.75 2.77-1.74 5.83-5.88 9-6.15 3.12-.27 8.07 4.35 11 5.95 3.68 2.01 7.9 2.11 12 1.62 4.87-.59 13.78-4.57 19-6.31 7.94-2.64 17.66-4.45 26-5.35l23.09-.97c5.08.35 6.3 2.57 11.91 2.75l14-.94h40l14 .74 45 1.26 21 1 13 1 24 2h9l30 2.83 21 1.34 13 1.66 28 2.34 59 7.55 81 12.2c17.51 3.07 34.96 5.54 52 10.74l17 4.89 7 1.23 10 3.48 16 4.25 8 2.82 14 3.7 14 4.95 16 4.36c2.76.58 7.53 1.03 9.73 2.59 1.94 1.39 2.4 3 3.27 5.07l-6-1-1 5h3v-3l6 2-2-6c3.13-.69 3.69-1.11 5 2l3-1 3 2-1 7c4.6-.53 22.11 3.27 28 4.25l64 11.33c68.48 12.34 137.47 23.16 205 40.05l67 18.12 12.72 4.74c1.89.56 5.18.8 6.46 2.26 1.22 1.4.87 2.63.82 4.25l17.71 9.68c3.85 3.03 5.54 7.39 10.33 9.18l17.96 4.27 52 11.08c16.96 3.59 42.06 9.19 58 14.88l26 10.91-1 3c3.2 2.49 2.88 4.27 2 8l7 6v8l-3-3c-1.01 2.05-2.44 4.37-1.47 6.73.9 2.21 4.43 3.54 6.47 4.52l22 8.06 20 6.74 33 12.34 19 3.05 28 5.93 53 13.35 58 16.83 25 3.87 102 13.73 192 23.7 141 17.42 62 8.01 36 4.26 24-5.66 38-7.43c28.95-5.78 80.15-12.43 110-15.28l50-4.21h9l17-2h8c9.18-1.11 5.81-1.9 18-1.96l11-1.04h9l24-1.96 13-1 31-2 30-1 19-1 15-1 52-1 17-1h20l16-1h51l15-1h17l17-1.92h14l15-1.08 52-2 17-1h81l15 1h23l28 2h15l13 1 27 1 10 .91 26 1.09h28l12 .96h11l42 5.65c6.38 1.16 10.52 3.3 17 3.39h49c12.62-.02 25.57-7.54 37-12.7l27-11.04 24-9.59 40-12.44 19-5.19c3.33-.81 6.93-.66 10-2.18l32-22.52 22.91-15.2 18.13-13.02 12.92-7.57 12.04-7.69 10.96-5.65 7.13-4.55L4189 2731l25.99-10.81 7.18-3.42 20.83-7.11 20.91-7.52 33.09-9.86 53-15.86 101-25.53 89-18.77 21-3.55 34-5.84 36-4.86H4668.87c2.03.58 2.17 1.43 3.13 3.13 4.25-2.54 7.96-4.35 13-4l-6 12 38-3.04 13-.96h20l13-.9h18.08l17.92.9h14l26 2.75 32-11.7c28.16-10.53 55.69-23.2 83-35.74 66.31-30.45 131.73-62.43 197-95.06l43-20.62 24-12.37 25-10.84 27-11.07c4.58-1.52 11.65-1.88 15-4.35l-3 1c.76-1.44.95-2.05 2.13-3.32 6.13-6.66 7.7.69 13.33 4.25 5.34 3.38 8.36 2.72 11.54 9.07l67-43.31 36-23.02 16-14.5 15-13.26 10-9.48 13-9.15 15-11.02 23-16.26-1-4 4 2c3.97-4.76 9.14-7.66 14-11.42 7.95-6.18 8.35-7.07 15.05-13.67 3.14-3.1 6.39-8.19 10.95-5.91 2.55-3.29 3.79-3.69 4-8l5 1 2-7h6l-2-4 4-2 2 3c.15-1.83.09-2.99.93-4.72 1.85-3.75 14.35-14.62 18.07-17.28v5l7-11 1 4v-4h4l-1-3h3c-1.77-5.61 1.34-8.69 7-8l-1-4 7.97-9 12.03-16zm40 58h1l-1 1v-1zm-95 4h-1l1 1v-1zm115 0l-1 6 1-6zm-12 10h-1l1 1v-1zm0 3l-8-1 2 5c3.61-.79 4.07-.79 6-4zm3 3h-1l1 1v-1zm3 1h-3l-4 6c4.26-1.49 4.78-2.1 7-6zm-8 1h-1l1 1v-1zm5 9h-1l1 1v-1zm-114 171c-11.54 4.89-24.46 18.26-35 25.73l-9 4.27v-2l-36 22.77-63 38.28-14 9.15-9 6.4-17 8.49-64 34.17-26 13.48a2713.58 2713.58 0 0 1-174 76.81L5011 2714l-120 41.67-34 11.33-13 4.72c-2.95-.18-7.64-5.12-10-7.14l-24-19.79-24-16.48-18-11.99-39-20.57-17-7.94c-5.09-2.66-10.08-6.38-16-5.81-.9-2.4-2.85-1.71-4.97-.69-4.21 2.04-5.99 5.66-13.03 6.35l-12-.66h-24c-8.67.01-19.86 3.73-27 1l-2 2-8 1.34-8-1.34-3 3v-3l-4 1 3 3c-6.6-.53-25.64 3.6-32 5.96l-7 3.04c-3.35-3.41-7.92.06-11.58 1.29l-21.42 4.08c-3.86.96-6.44.76-8 4.63l-4-1.25-20.58 5.39-2.42 3.86h-2l-1-3-43 11.58c-3.26.97-12.57 4.12-13.39 7.75-.41 1.83.83 4.86 1.39 6.67l-10-2c-2.07 3.53-2.77 3.11-6 1h1l1-2-4-2c-3.87 1.04-4.67 1.11-6 5-3.33-1.23-3.81-1.75-7 0l9 3c-2.02.74-3.78 1.55-6 1.65-6.1-.65-6-5.14-15.98 0-2.5 1.6-3.28 1.63-4.02 4.35l-33 8v1l2 2-6-1-1 3-10 1c-9.18 3.09-8.03 1.38-14 3.04l-14 5.2-12 3.95c-4.98 1.9-11.15 3.01-14 7.81-3.57-.67-4.78-1.14-7 2-4.31-.2-6.7.27-7 5l-5-1.17-28 12.39-36 19.33-14 8.04-16.04 12.22-10.96 6.12-10 4.07v1l2 2c-2.07-.53-3.83-1.2-6-.75-1.43.29-13.54 7.28-14.84 8.39-5.28 4.52-.78 13.15-10.16 6.36l2 7 2-2 1 3-3 5 3-1-2 5 3-1-3 3c2.95 5.18 5.69 4.26 4 9 5.03 4.83 3.51 6.77 5.7 13l2.67 7 1.38 7c1.19 4.86 5.15 16.47 7.25 21l-100 28.98-28 8.36-13 4.66 14 8.51 12 7.95 13.96 4.02 6.21 3.48L4057 3017c-.53 2.53-1.21 3.37 1 5l-3 2 3 3-4 2 58 47.72 16.95 14.37 7.82 9.82 7.23 7.09-3-2c1.14 4.9 7.93 7.06 12 9.42l19.91 12.62c5.92 4.51 7.5 7.91 15.09 11.96l1-2h1l3 5-2-2h-1c3.2 5.87 17.38 17.38 23 23 16.9 16.88 33.86 33.48 49 52l-54-33.42c-44.57-27.62-89.89-53.95-136-78.89l-63-32.94-35-16.66-35-8.51-49-11.16c-60.41-13.34-120.95-24.68-182-34.67l-47-5.66c-6.03-.44-15.62.23-20-4.09l-5.09 1.7-27.91-2.53-48-5.32-26-2.85h-29l-17 1h-35l-17 1h-67l-13 1h-18l-18 1h4c-7.59 7.23-11.69 7.32-21 11l6-11-10.17 5.03-6.83-1.03v-4c-19.16 0-75.39 5.85-97 8.16l-42 4.51-8-1.62-23 1.78-52 5-109 14.59-51 8.85-23 4.31-32 5.87-15 3.75-21 3.19c-7.35 1.33-14.54 2.32-22 2.39-5.83.06-6.53 2.4-11-2.78l-9.72 2.64c-3.18.34-4.19-2.13-8.28-2.33l-16 1.61h-13c-21.26.11-44.8 8.82-65 15.41-30.98 10.1-61.73 20.33-92 32.47l-36 16.45c-2.88 1.44-12.38 7.16-14.9 6.76-4.13-.66-7.5-10.36-8.1-14.01l-17 6.7-30 14.05-80 41.67-25 13.99-17 9.59c-.58-1.96-.91-3.18-1.96-5-5.18-9.04-9.81-4.25-17.04-.83l-19 9.59c-5.07 2.57-7.13 4.71-13 4.24-5.55 6.29-15.41 10.76-22.91 14.92-5.41 3-6.49 5.08-13.09 4.08l1 3-2-2h-1c-2.21 4.53-3.85 6.04-9 6-1.51 4.66-5.63 5.29-10 5v3l-6-6 5-5-6-7 4 2c.65-5.61 8.58-8.98 13-11.82l43-25.18c-.66-3.09-3.07-8.38-1.16-11.07 2.67-3.79 17.35-8.82 22.15-10.85l21.01-11.74 22-10.65 15-7.38 26-11.57c22.73-11 49.19-24.38 73-32.29l11-2.16 15-5.87 44-16.42 39-14-41-3.09-70-6.08c-78.2-7.48-156.21-17.35-234-28.56l-78-11.86-33.98-5.71c-5.73-1.47-4.31-3.91-11.02-6.4l-27-9.6-10-3.02-25-10.68c.64-2.25 1.48-4.63 1.23-7-.7-6.62-8.7-19.21-13.2-24l-10.03-10.96c-8.42-8.14-31.17-26.04-41-32.46l-21-14.83-14-8.75-55-37.98-41-28.06-18-13.93-41-24.45c-7.36-4.15-22.33-12.67-30-14.72-10.11-2.7-20.61-.78-31-.99h-4-10c-30.71.99-71.69 16.02-98 31.58-11.7 6.92-24 13.19-34 22.59-2.91 2.73-12.76 12.77-16.28 12.81l-10.72-2.99-27-8.44-57-17-32-9.63-17.55-9.6c-3.13-2.57-1.72-3.29-9.45-8.52-3.92-2.65-8.12-6.23-13-4.67 7.35 3.81 8.36 2.66 13 10 1.22-2.29 1.59-1.64 4-1l3 8-10-5 1-5-13-8c-5.52 2.03-6.28 3.2-12 1l3-3c-2.61-3.35-3.43-7.52-6.52-10.66-2.8-2.84-9.52-4.4-13.48-5.34l9 10c-2.29-1.76-10.96-9.27-12.51-11.17-2.56-3.16-2.62-6.04-6.59-9.2-2.29-1.81-6.27-4.52-8.9-2.63-4.27-2.46-4.24-2.22-9-1-.45-1.6-.6-2.89-1.85-4.16-1.54-1.58-5.97-2.79-8.15-3.41l-18-4.85-7-1.67c-3.41-.38-5.32.56-8-.54-5.47-2.26-7.14-8.84-13.04-7.94-8.39 1.29-20.65 12.3-26.96 17.85-2.58 2.28-6.92 7.12-10 8.03-2.92.86-18.14-3.22-22-4.18l-57-13.71-44-8.84-35-8.57c-41.94-9.27-84.57-16.85-127-23.43l-93-11.75-53-3.83c4.2 6.6 10.59 12.25 15.98 18l24.57 27.17 10.11 12.83 8.3 10 5.57 7.83 13.43 13.17 23.65 26.17L952.8 2783l8.54 10 14.03 19 46.3 66 38.47 64 8.28 15c1.67 2.94 3.92 5.63 3.35 9.17-.86 5.41-5.45 13.58-7.17 18.83l-11.6 45-30-30 1 6c-18.77-16.3-22.66-27.37-36.75-46l-21.97-25c-5.87-6.68-18.04-22.58-25.28-26l-1 1c1.8 7.65 12.81 30.88 16.74 39l29.26 57c37.8 66.12 67.72 103.97 117.72 161l47.29 52 63.99 63c8.35 8.25 20.23 17.55 27 27l-4 3 3-1-3 6 4 3c4.34-.84 4.92-.66 9 1l-7 1c1.2 3.42 1.46 3.38 5 4l-14.11 17-2.33 10.15-8.38 6.24-7.27 7.07-16.91-4.65-18.91-6.21-5.26-3.29L1159 3345c3.22 8.42 20.96 33.36 27.04 42 2.1 3 9.35 11.49 10.14 14 1.18 3.74-1.81 6.73-3.14 10-1.27 3.27-.93 4.75 0 8-7.66 1.72-5.16 4.51-7.69 10-3.64 7.93-8.77 17.32-10.16 26-1.06 4.59 1.16 5.69 0 9-1.22 5.05-5.65 5.14-6.19 16l9 2-4 5-2-4h-5c.39 11.22 5.2 4.55 10.94 14.04l29.92 47.96 35.57 52 20.18 27 16.29 23c18.43 24.24 38.69 47.4 61.1 68l4-3c.83 2.64 2.08 6.77 3.58 9 4.16 6.15 21.49 17.72 28.42 21.8 6.18 3.63 11.98 7.29 19 4.2l2 2-1-5 7 1c1.02 3.31 4.06 7.97 7.12 9.76 1.83 1.08 5.67 1.18 7.89 1.5 11.77 1.7 24.66-3.04 35.99-6.11 4.48-1.21 15.22-3.78 18-7.15 9.95 1.01 20.81-6.94 29-11.72l19-10.51 42-27.48 18-12.66c5.42-2.06 10.14 2.16 11 7.37 25.07 6.6 40.88 11.15 58 32l-13 2.42-8 3.84h-16l-65 8.74 1 3-4-2-1 1c1.56 6.34-.17 4.67-1.47 9.19l-.53 4.81-4-1-2 7h1l2 2-6 1v2l26 14.22 37 21.03 15 9.17c1.54 1.11 4.85 3.25 5.4 5.09 1.09 3.65-5.19 8.01.73 12.12l2.87 1.37c-4.2 13.57-16.9 24.68-26.83 34.13l-13.17 11.83c-6.66 5.09-18.43 10.66-22 18.04l17-1.87h17c14.16-.11 28.12 6.84 38 16.87 12.62-29.35 26.56-58.26 42.43-86l43.03-68 8.55-15 7.52-11.87 4.73-4.58c1.47-2.07.86-3.7 3.03-7.55l9.43-14c4.99-7.17 12.87-17.74 15.28-26l19 12.72 33 21.28-8.7 16-6.77 15-21.75 32-18.09 38-17.83 38-19.87 48-20.04 51-8.34 22c-.82 3.11-2.62 15.4-1.5 18 1.54 3.58 7.56 7.78 8.34 10.53.62 2.17-1.54 3.49-2.6 5.07-.79 1.17-5.1 11.13-5.26 12.31-.54 3.92 4.01 6.47 2.54 12.09-1.5 5.72-7.84 6.51-10.99 17l-19.71 67-9.58 37-16.13 56-19.72 64-37 105c-8.49 24.92-6.01 17.57-10.25 42-1.05 6.06-2.08 17.42-5.75 22 1.62 6.93-.36 11.27-1.79 18l-6.09 28c-.96 4.01-4.52 13.49-3.01 16.99 1.18 2.71 6.56 7 8.98 9.1l21.9 18.49 9.05 8.84 43.96 37.86 20 18.11 26 20.33c3.62 2.55 8.46 4.79 5 9.28-.67 4.61-2.97 8.57-7 11-.45 3.1-1.13 3.1-4 4l1 2c-6.36-1.29-11.68-5.46-17-9l-20-12.66-12-7.03c-17.69-11.23-28.58-18.27-45-31.73l-25-20.71c-6.17-5.26-12.91-12.09-20-15.87l-11.05 31-20.75 54c-4.01 10.02-3.99 9.46-6.58 20-.81 3.33-2.15 6.71 0 9.82 1.8 2.61 11.21 8.37 14.38 10.52l31 21.38 51 35.02 49 38.26 36 27.58c3.1 2.21 11.64 7.31 11.55 11.39-.06 3.12-9.46 13.5-11.55 17.03l-3-1-1 2h-1l-16-11.72-41-26.33-70-43.29-62-40.66-3 14c-3.05-.71-9.08-2.44-11.98-1.12-3.33 1.52-6.15 7.91-7.77 11.12l-13.25 26 10 4-16 32 60 39.67 114 77.91 87 64.54 38 28.88c-3.26 2.84-7.42 8.38-12 8.38-3.88 0-13.48-7.87-17-10.38l-29-20.81c-7.96-5.47-13.5-7.39-18-16.19l-1 3-43-28.66-117-77.01-54-35.76-21-13.57-23.17 39.91L1402 4858c-1.11 5.7-4.66 9.06-7.81 13.45-5.8 8.08-11.12 16.42-15.19 25.55h10c-1.58 6.64.03 4.14-2.58 12.01-.61 1.83-1.78 4.74-.99 6.6 1.38 3.23 11.23 5.37 14.57 7.31 10.29 5.94 19.66 15.74 28 24.08l25 24.01 35 34.95 72 65.46c12.91 11.09 27.54 19.79 42 28.77 5.47 3.4 11.23 9.25 18 7.81 4.01 8.72 14.22 13.17 22 18.33l22 13.77 13 5.84 11 6.08c10.17 5.18 11.14 2.88 23 11.34 8.95 6.39 19.35 8.29 22.53 12.03 1.27 1.49 1.06 1.94 1.47 3.61l24 11.75 54 27.03 30 13.83 24 1.48c10.04.69 24.58 3.41 34 6.86 3.96 1.45 15.06 6.27 17.36 9.44 4.65 6.38-9.23 9.4-5.36 16.61l-16-2.54-14-1.46-1 2h-1c.87 9.83-4.39 7.65-11 5.23l-11-3.31-14-5.14-34-4.06c-16.43-2.22-37.93-7.56-54-12.14l-28-8.09c-2.61-.16-4.68.44-7 1.51l65 51.58c40.45 31.56 70.03 52.92 114 79.62l40 24.6c4.12 1.72 15.97 3.8 21 4.8l38 7.4-6.43-18c-6.59-15.43-14.6-30.67-18.57-47l14.01-9.11L2002 5325c-11.88-.7-15.46 2.32-19.91 1.7-7.19-1.01-7.84-5.68-8.84-11.7-1.68-10.05-2.89-20.83-2.63-31 .57-21.93 5.08-43.5 9.38-65l6.91-35 6.05-17 6.35-21c2.39-5.78 4.01-6.61 4.88-8.51 1.8-3.93-.68-6.81 2.45-10.19 3.45-3.72 19.73-7.59 25.36-9.32 14.76-4.55 29.79-8.23 45-10.9l32-5.08 1.54 1.42 16.46-1.26 43-4.25 10-.91-17.14-31-28.6-54c-19.74-38.25-37.57-77.53-54.68-117-10.97-25.3-22.54-50.94-31.58-77-3.8-1.33-4.5-6.54-5.81-10l-8.86-30-3.44-10-7.97-40c-1.24-7.48-2.27-17.89 3.24-24.01 3.44-3.83 8.48-2.72 13.01-3.33 4.27-.57 13.3-4.66 19.83-4.66.62-2.75 1.1-3.02-1-5v-4l35 2.28 25 2.68 22-2.68 29-3.24h10l12-1.04h44l15 1h17l21 1 20 1 20 2h11l42 4.83 47 6.04 14 1.57 37 6.95 15 2.28 26 6.45 28 6.3 31 9.91 18.09 5.36 28.91 11.51 33 13.24 18 9.3 15 6.58c25.47 13.36 47.87 28.23 71 45.26l22 17.85 10 8.57-2-9c-3.48-1-4.62-1.22-5-5-3.31-2.97-11.63-13.66-12.56-17.82-.34-1.54.18-2.73.56-4.18l6 1-3-3c5.32-1.29 7.68-1.29 13 0v-2l4 1 3.11-4c-1.31-2.79-4.25-7.14 0-8.97 1.38-.59 2.55-.52 3.8 0 3.71 1.74 13.64 16.83 16.72 20.97l22.33 29 17.04 25-4 2 13 13-2-1 21 29 29.2 48 16.33 27c7.39 9.55 24.25 22.38 29.47 33 5.58 1.61 5.66 4.99 5 10l5-2c.75 3.52 1.11 4.01-1 7 1.27 4.47 2.33 8.37 7 10-.62 6.03 1.88 7.87 4.27 13l12.73 28 5 4c-1.73 9.74 8.16 14.27 8 23l3.85 1c-.08 1.76-.36 3.2 0 5 .14 2.62 4.48 12.57 6.45 14.14 1.56 1.23 3.8 1.49 5.7 1.86l-4-2v-2c3.99-.47 4.88-.47 7-4l6 2c-4.38 7.9-3.73 9.95-13 9l3.71 4.3c1.68 3.78-1.27 4.26 3.29 7.7-1.43 5.07-.69 13.55 4.27 16.7 1.8 1.14 8.33 2.59 10.73 3.17 2.89.7 8.18 2.15 11 1.54l15-7.41c1.13 3.56 4.33 9.94 7.52 12.01 2.07 1.35 8.8 1.82 11.48 2.14 7.82.95 7.17 1.41 14 3.85-3.18 5.46-.74 8.16-1.11 14.58-.53 5.6-3.43 4.72 0 12.42-3.24 3.47 2.71 9.75 4.66 13l21.64 36 18.12 28 13.5 21 6.24 8.17 3.28 5.59 4.1 5.37 6.67 15.83c2.78 6.31 4.83 7.74 6.25 16.04 1.1 6.5-3.54 28.82-5.35 36 14.96 4.1 10.64 12.3 7.63 24l-15.77 51-13.72 37-11.75 25.99-8.78 19.99c-2.99 5.96-3.68 3.47-8.72 13.02l-5.14 11-13.96 29-3.15 9-9.66 21c-2 6.27-1.31 11.35-6.2 18.58-7.01 10.36-19.66 18.69-30.87 23.91-16.91 7.89-56.54 16.01-75.91 20.32-38.13 8.49-77.17 12.6-116 16.36l-24 1.92-11 .91-28 2h-21l-25 2h-45-16l-26-2h-21l-23-1.91-39-2.18-15-1.74-40-3.34-11-1.67c-31.79-3.43-63.47-7.44-95-12.91l-40-7.25c.49-3.21.73-7.72-2.31-9.92-2.52-1.67-10.42-3.63-11.69 0l-4-1.08-4 6v-9l-14-1.06c-2.21.2-4.63 1.9-7 2.61-4.22 1.29-6.25-.37-8 4.45l-5-5 4-5-8 2-1-4-24.42-4.08c-6.29-1.23-8.74-3.71-15.58-1.92-.99-3.01-5.13-3.15-8-3.87l-24-6.13c-.98 3.47-1.53 3.3-5 3l2-4-15-5-3 4c-3.58-8.16-3.33-5.23-10-9v1l-2 2-2-5c-7.35-.7-6.83-5.61-16-2l-1-1 1-3h-7l1-3c-4.86-2.04-5.96-3.38-11-1-1.06-6.21-7.59-8.45-13-10.75-3.12-1.34-4.92-.75-6-4.25-2.67-1.26-6.49-2.74-8.72-4.49-6.34-4.98-8.22-9.83-17.28-8.51l-2-4c4.45-2.22-2.93-4.7-5-5-3.59-5.39-14-13.46-19.23-6.03-3 4.3-.29 7.5 0 11.03.13 2.49-.88 4.33 0 7 .62 1.85 2.01 3.56 3.34 4.96 7.47 7.85 10.72 1.07 11.89 11.04l7 1 1 6c8.53 4.96 10.65 9.25 21 12-1.51 2.21 4.07 3.56 7 6l5-2c.92 6.46 4.58 7.3 10 9.84 8.24 3.84 21.13 10.67 30 11.16l2-3-2 4 10.83 3.06 6.21 3.83L2257 5687l2-9 1 7c4.08 1.66 4.66 1.84 9 1l1 3-3 1c7.72 1.55 13.05 4.89 20 0l7 2c.25-4.48 1.84-5.7 6-7l-4 5-2 6 6-5-1 6 8-4 1 6 19 2.83h6.42l8.58 2.07h8v-6.9h2l-1 5 2 3c3.61.12 8.71 1.48 11.91.57 6.34-1.8 5.27-7.47 15.09-5.57l2-4 22 11.74 37 17.95c46.11 21.18 92.88 40.52 140 59.31l53 20.42 24 9.06c2.86.92 18.42 3.74 20.79 3.19 4-.92 3.47-5.01 9.79-4.95 5.9.07 25.46 8.11 32.42 10.45l37 8.71c18.06 4.29 28.98 7.69 46 15.26l9.83 4.21 7.18 4.22c2.42 1.18 6.83 2.89 7.82 5.61.53 1.49-.61 4.99-.83 6.82-7.19 4.03-9.99 9.34-15.26 14.88-5.44 5.71-9.1 4.29-10.74 14.12h4l-1 3 3 1 3 8 8 2-1 2c7.63.7 13.4-6.01 18.58-10.71l6.11-4.58c3.53-3.68 2.13-7.48 8.31-8.71 4.42-6.86 6.95-8.54 15-7-2.96 4.96-3.7 5.17-3 11l-4-1c-4.17 6.3-8.73 6.66-11 15l3-2 3 5-2 1v1l4 1c-4.1-.68-4.23-.93-7-4-5.3 2.35-15.98 8.56-12.29 16 2.35 4.73 7.25 5.89 10.29 12h5l-4 1-.83 2.28L2836 5953l1 3c-3.63 1.68-5.14 1.91-6 6-5.54-.45-9.5 3.06-14 6l2 2h-3c-2.27 6.5-10.92 11.82-17 14.68-2.47 1.16-6.79 2.36-8.34 4.59-2.1 3.02.6 5.04 1.12 7.01.63 2.41-.95 5.44-1.78 7.72 8.38.86 9.92-2.42 16-3.39 5.5-.86 4.66 1.7 11-1.61l-1 3c10.89-.03 20.82-2.73 30-8.8l8-5.76c10.85-7.02 7.46-3.07 18-12.44l-3 4c3.57-1.45 4.09-1.62 6-5 2.91-.34 3.24-.1 4-3 10.86-1.51 13.89-9.44 16.29-11.42l6.71-3.58-3-1 5-3 1 3c1.44-3.23 1.45-3.55 5-4 2.11-5.65 15.41-8.38 17-18h5c1.85-5.8 7.7-9.09 12-13.09 3.52-3.28 11.47-12.04 15-13.9l11-3.69c10.13-3.73 20.41-7.34 30-12.32l-8.22 14.96-4.78 6.21-4.89 7.74L2971 5932c-3.78-1.88-3.91-2.27-8-1l1 3c-8.25-.3-14.95 12.1-22 16l1 3h-4c.17 5.25 3.37 14.77 9 16v4c4.84-2.79 8.02-4.21 9-10l4 1 7-5-2-4 12-4.7c2.97-1.58 10.04-7.75 13-10.22 6.89-5.75 14.07-11.12 20-17.87 4.35-4.95 6.56-3.24 9-10.21l4-1-1-3c11.65-3.44 12.04-13.11 20.39-20.52 4.29-3.81 7-2.28 11.52-4.33 3.41-1.55 4.37-3.75 7.13-5.56L3073 5873c3.65 4.81 4.61 1.51 11-2l2 3-1-4h4l-2 3h4l-7 12 5-3-2 5c-8.86-1.14-8.02 7.88-10.45 11.17-3.33 4.52-7.49 5.6-7.55 11.83-2.5.75-4.77 1.29-7 2.72l-20 16.85c-3.64 3.02-7.04 4.57-8 9.43l-5.2 4.13-8.8 5.87 1 4-1-5-3 4.21c-1.81-.28-2.11-.57-4 0l-21 16c-3.16 2.55-8.4 6.45-2 8.79l-1 9h11l6-7 3 1-1-4c10.6-.04 15.56-5.12 24-11.14l36.04-27.76c2.81-2.24 13.81-11.59 15.18-14.11.96-1.76.69-2.23.78-3.99 5.46-1.77 6.52-2.3 10-7l-2-2c10.34-1.2 10.21-7.39 16.21-13.91L3125 5882l-2-6 7 2c7.4-6.8 11.76-11.55 22-13l-3.94 15c-3.83 10.71-18.28 36.12-25.54 44.72l-20.1 22.19c-4.04 4.34-6.78 5.51-9.42 11.09 4.2.75 11.63 3.99 15 3.2 3.75-.87 17.02-10.48 21-13.22 19.87-13.73 39.21-29.66 51.14-50.98l10.89-26c1.66-2.58 3.86-4.71 5.88-7 1.38-1.56 4.72-6.32 6.3-6.97 3.87-1.62 11.21 7.39 13.79 9.97 3 3 9.07 8.65 11.08 12 .89 1.48 2.68 5.71 2.9 7.42.77 5.83-4.42 19.6-7.44 24.58-6.88 11.32-14.37 22.43-23.58 32l-12.19 10.33c-1 1.53-.58 1.76-.77 2.67l-3 1-2-3c-5.61 7.44-3.4 6.04-11 12l1-3-2 3c-6.34-.56-11.23.9-12 8l-9 2 1-3-4-1 1 3-4 2 1 7c-3.32.2-3.25.16-5 3l-3-2c-1.33 3.77-9.43 7.28-13 9.4l-31 18.29c-4.18 2.71-9.39 5.39-11 10.31l-6 2 6 1v2l-7 1 3 1-18 8.75-19.48 9.32-5.52 7.93c-1.42-1.34-2.78-2.98-4.98-2.75-3.01.3-5.2 4.53-1.02 5.75l-1 5 3 3 4-1 1 3 20-10.61 46-24.81 35-19.58-1-4 6 1c6.64-6.42 15.01-4.95 21-16 3.09 1.54 3.77 1.2 5-2.21h7l15 3.92 28 7.87c4.23 1.2 15.66 3.59 18.16 6.72 1.57 1.96 4.55 11.74 5.5 14.7 4.65 14.56 2.71 15.85 12.34 29l-3 1 8 29 4-1-3 2v2c4.06 4.73-1.55 12.92 7 18-1.08 5.78.71 6.8 3 12l3-2c2.35 7.18 4.52 8.32 12 9l-1-4c-4.51-.08-5.11-.57-8-4l5 1 5-1-1 4 16.23-3v-6.04l-6.35-23.96c-1.21-4.59-1.69-10.28-5.88-13 2.42-4 .46-7.66-.63-12-1.27-5.07-6.18-25.47-8.45-28.62-1.17-1.62-2.35-2.27-3.92-3.38l3-1-1-4-5 1-1-4 5 1-1-3c2.32.34 4.85.6 6.86 1.93 4.13 2.74 6.25 12.36 6.14 17.07 5.55 3.63 1.43 3.74 2.76 10.01l2.92 10.99 2.25 5c1.09 3.36.07 3.24 2.07 8-3.34 1.2-1.24 6.25-.66 9 1.37 6.43 2.8 12.83 5.07 19 1.36 3.7.63 5.44 4.59 7l-1 4 4 4 16-3-2-3 6 2c1.96-10.17 7.63-12.86 0-23 .49-.73.88-.65 1.29-2.22l-2.87-22.78c-.56-3.73-.14-5.72-3.42-8 1.04-3.67 2.13-8.2-1-11 1.53-6.31.96-7.94-1-14l3.41 2.29L3332 6051c-2.5.93-1.53 2.7-.99 5.01L3333 6071c3.27-.28 5.39.04 5.57 4.02.05 1.16-2.76 12.65-2.46 17.98.19 3.52 3.89 16.36 5.33 19.83l2.56 6.36h11l9-1.19 6-2c-.07-7.84 4.51-6.34-2-15 3.43-3.62 2.2-4.43 1.97-9-.36-7.05-.47-15.89-3.77-22 2-3.53.84-8.02 0-12l-3.2-24c4.01 2.1 4.59 2.22 9 1v19c.02 3.18-.46 4.8 2 7v2c-2.24 2.19-1.63 5.96-1.85 9-1.13 15.9 4.5 19.23 3.85 30h2v-3l3 1c1.03-1.71 1.95-.05 3 1l-3-1 1 4c-3.88 1.91-5.09 3.12-7 7h4c-.58 2.11-1.61 5.33.6 6.85 1.77 1.38 6.3.24 8.4 0l18-1.85c.04 3.19-.47 4.78 2 7-.72 1.72-1.42 3.09-1.64 5-.43 3.72 1.01 13.95 5.77 14.48 5.04.55 7.27-5.17 12.87-1.48l12-1 2-19h-5l2.85-1.41c6.37-4.24-1.25-8.4.52-13.38.69-1.95 2.53-2.63 3.35-5.42l4.11-35.79c.61-6.65-.64-4.55 1.17-13l-2-1-1 1-1-3 4-1v-25c10.4-.23 21.19-4.37 31-7.67 5.32-1.79 10.79-4.73 16-1.33 11.18-2.56 10.91-5.42 19-12l2 4c7.63.96 12.63 6.93 19 10.65l10 5.36 7.28 4.83 6.72 3.37c11.22 6.72 16.56 11.47 30 12.79.76 4.29 3.54 6.84 7 3l10 1 1 8 2-6-1-4 4 4c2.37-.88 4.59-2.08 7.17-1.72 6.71.93 11.81 6.32 18.83 3.72l4 4v-3h7v-5h-7c-.88-5.08-4.1-5.05-8.28-7.31l-26.72-12.06-50-28.8-12.87-6.33c-3.56-2.32-3.45-3.68-8.15-6.48-4.51-2.69-6.07-2.29-8.53-3.76-4.59-2.73-13.3-12.99-24.45-17.26-.76-6.71-8.61-10.15-13.2-14.42l-11.8-9.75c-7.43-6.68-19.97-19.95-26.18-27.83-2.17-2.75-5.83-7.86-7.19-11-1.58-3.66-1.41-7.36-4.63-10 1.85-9.23-6.67-22.21-3.4-30.99 1.04-2.78 4.56-5.87 6.68-8.1 1.63-1.7 4.36-4.9 6.72-5.38 3.78-.75 9.52 5.99 12 8.47 11.62 11.6 15.37 16.47 25.4 29 15.99 19.98 33.3 35.38 55.6 48.13 9.88 5.64 10.42 3.69 14 5.61l6 4.19c4.69 2.77 18.54 7.82 24 9.07l-20.11-19.63c-6.93-7.17-20.48-25.59-25.83-34.37-2.57-4.22-11.13-18.63-9.14-23 3.06-6.69 13.02-10.89 19.08-14.19l6-3.36c2.95-1.16 3.34-.63 7-2.45 8.98 17.56 18.38 28.18 30.79 43 5.14 6.14 2.57 6 13.21 15.91 8.97 8.36 20.74 16.62 31 23.42l19 11.86c4.51 2.76 7.55 5.33 13 4.81-21.46-22.68-31.55-33.97-47.73-61-5.01-8.36-8.28-13.57-11.58-23-3.95-11.3-4.44-21.38-5.69-33 7.25-1.41 22.25 4.19 30 6.13 4.11 1.03 8.51 1.53 11.35 5.01l8.89 17.86c2.39 6.05.95 5.73 5.05 13 8.58 15.23 27.47 36.23 40.71 47.57 5.4 4.62 12.3 11.21 19 13.43l-25.72-27.09c-4.59-4.99-22.72-31.48-26.41-37.91-4.08-7.11-11.8-19.81-9.87-28 2.87 4.07 5.3 4.05 10 5l3-4-1 2c3.97-1.13 7.15-1.94 11 0 2.13-2.69 3.73-2.44 7-3v9l8 1c1.35-11.62 11.47 3.03 13.71 6.04l13.77 17.96 4.19 7c4.18 6.25 14.7 17.87 21.33 21-6.48-10.35-7.34-8.82-11.64-15.01-5.09-7.33-9.21-16.53-12.03-24.99-2.81-8.44-3.44-16.95 7.67-19 5.27-6.51 7.7-4.49 15-5.17 3.39-.31 6.6-1.57 9.16 1.48l4.71 9.69 9.53 16c1.42 5.11-2.62 5.24 4.52 15 4.79 6.54 11.47 13.85 17.66 19.07l6.96 5.32 4.76 5.44c3.37 3.54 11.54 10.17 15.7 12.87l15 8.55 7 3.22 25 15.5c5.69 3.09 21.81 9.65 28 10.71l13 1.32 4-7c-5.43-.44-6.36-1.25-9-6 4.27-2.52 4.49-3.12 4-8 5.99-4.06-.3-7.73-2.02-12-.93-2.22-.38-3.78 0-6l-.98-1-3 1-1-1-1-6h-1l-2 2c2.53-3.39 4.05-6.15 8-3l11.17-5.58.83-3.42c5.35-3.46 5.8-9.85 1.57-14.54l-11.57-9.06c-7.65-6.09-15.07-12.49-22-19.4l11-1c-2.28-4.33-3.36-5.09-2-10l1 6v-1l2-2 1 5 6-4c6.01.3 12.54-3.96 18-6.47l24-12.22 9.89-5.1 7.11-5.21-2-5 9-1.75 8 .75-2-4c7.7-.89 17.75-5.49 25-8.58l37-16 141-64.11 30.58-14.22c1.83-.38 4.48-.12 6.42 0 8.38 0 11.04-1.62 13-1.31 4.61-.03 9.66 5.06 14 0l16 1.22 40-3-1 3 3 1 7-2v-3l5 4-2 2 6-2c-1.05-2.41 1.38-4.17 3-6v5l4-1-3-1 6.17-3.09 6.83-1.91 2 8 1-4 2 4 13-1 1-4h2l2 3-1-7 4-1v7c7.49-1.01 8.46-.98 14-6v4l17.28-3.96 14.72-2.48 14-4.2 25-4.73 24-6.75c7.6-1.87 7.72 1.2 13 .7 6.51-.62 12.29-6.78 17.91-9.66 3.03-1.56 4.77-.34 7.09-2.92h5v2l7-3 1 3 5-5h-3l5-2 3-7-3 2c3.11-5.39 15.39-6.2 15-17 5.74-1.72 11.82-9.35 13.77-15l1.28-6.72 2.95-5.28 4 1-1-3c8.74-.01 2.63-6.96 12-13l-1-3c4.74-1.07 14.41-14.22 14.89-19 .18-1.79-.36-2.47-.89-4l3 2-2-5c6.64.83 8.81-5.98 11.8-11l14.86-25.86c2.89-3.17 6.7-5.15 10.34-7.34 41.53-24.92 83.55-49.75 123-77.89 19.54-13.94 43.53-32.57 55-53.91l-37 11.28c-21.84 6.55-53.59 16.69-76 16.72h-12c-11.46.16-24.08 10.59-25.06-5-.15-2.49.21-2.83 1.06-5l-5-11 20-8.58 29-7.54 22-4.98 59-29.64 26-11.41c7.54-3.24 12.31-4 14-12.85l6 3c7.32-3.17 12.94-6.74 18-13l-16 8c3.16-3.99 5.77-4.8 6-10 6.74 3.49 5.46-.25 10.21-4.1 2.46-1.99 5.9-3.61 8.79-4.9l-6 7 5 1c1.67-3.64 1.7-5.25 6-5 4.42-4.26 1.54-5.22 6.31-9.41l23.69-15.68c7.85-5.27 16.96-13.21 23.98-19.63l11.45-13.29c1.71-2.38 2.68-3.8.57-5.99 2.12-7.82-1.61-8.22-6.14-14.01-1.69-2.16-3.66-5.42-6.86-5.08-4.42.47-12.03 10.65-17 4.09l-10 4c-2.08-5.1-2.97-.7-10-1l-1 3c-11.58-3.07-19.37 2.57-30 5v6c-3.7-2.21-3.9-2.74-8-1-2.74-2.16-7.03.34-10 1.41l-27 7.59c-3.05-3.1-9.32-.07-13 1l53-34.69 72-47.98c68.19-45.95 134.82-94.66 201-143.45 29.75-21.93 59.57-43.64 88-67.29 2.31-1.93 11.29-9.86 13.28-10.65 2.51-.99 8.79.04 12.72-4.94l4 3 3.74-3.14.82-6.86 3.02-11 7.42-12c-9.39-5.61-4.16-8.36-10.13-12.74-5.07-3.72-11.53-1.21-14.45-6.12-2.23-3.74-1.1-12.49-3.55-15.71-1.9-2.48-4.39-2.07-6.83-3.44-2.24-1.25-3.6-3.02-5.15-4.99l-12.85-20-6.42-9-5.39-10-4.76-7-10.47-19-12 12c-6.87-.21-11.96 6.52-17 10.55l-37 28.1-57 43.47-89 64.02-45 31.15c-4.43 3.16-13.89 12.57-16.86 2.7-.25-1.35-.08-1.81 0-2.99l-4.14-1c.07-4.13-.02-4.15-3-7l3-2-5-2 23-17.51 22-18.92 43-38.15 67-53.43 37-29.11c15.17-11.57 43.32-31.77 55.39-44.6 2.81-2.99 14.17-13.45 14.7-16.37.43-2.38-1.31-5.73-2.24-7.91l-6.65-16-15.52-36-14.68-30c-6.62 3.41-9.84 10.78-15.17 15.74l-5.66 4.52-8.17 8.74-36 36.99c-24.58 23.98-51.45 45.82-78 67.59l-40 33.42c-1.8-4.62-7.62-5.17-12-6l2-4-8-3c3.49-11.45 9.28-12.76 18-20.28l20-19.71 92.13-93.73c8.47-8.67 25.55-26.14 32.07-35.28 1.97-2.75 6.66-8.19 7.7-11 .57-2.07-.05-6.28 0-9-2.86-1.28-3.69-7-4.29-10l-3.5-21.72v-6.26c-.33-2.62-1.93-3.82-3.01-7.11l-3.64-16.91-1.91-14-2.67-10-7.54-30c-1.78-5.59-2.39-12.18-5.34-17-4.75 9.85-16.87 26.86-23.63 36-17.78 24.03-29.57 38.11-51.37 58.96l-21 19.04c-1.87 1.87-6.49 7.05-9 7.38-4.44.59-12.2-11.98-15-15.38h1l1-2-2-2c16.05-13.24 31.83-36.73 43.72-54l28-40 9.45-13 4.52-8 17.11-28c1.71-2.83 6.4-10.1 6.73-13 .31-2.78-1.62-8.23-2.53-11l-5.97-19c-5.97-20.23-13.86-47-14.03-68h4l-6.58-31-13-54c-6.82-24.54-11.7-50.07-20.47-74l-13.64-30-25.05-54-22.12-50-18.83-40-22.17-45-12.56-22-6.95-12c-4.78-10.02-6.28-28.08-14.63-35l-2 2h-1l-2-7-3-3c4.01-.86 4.58-4.38 5-8l-5-1c.69-3.09 1.41-4.67-1-7 1.14-5.9-2.39-12.52-4.6-18-3.71-9.17-11.72-27.6-17.41-35-3.9-5.07-4.93-7.49-10.99-10-.2-3.55-.45-3.8-4-4-7.7-16.89-10.36-16.55-18.39-29.83l-2.82-6.11c-2.26-3.86-4.75-3.11-5.79-8.06l3 2c-1.52-3.77-2.09-3.87-6-3l-2-9-3-1 1-2h1c-2.57-15.42-7.49-21.49-13.69-35l-8.54-19c-2.43-5.31-8.42-17.69-8.77-23 3.66 7.3 17.67 21.13 23.72 28l47.67 55 65.4 81 37.63 48 39.96 46 10.95 16.98 8 7.28c2.89 3.19 2.87 5.57 5.98 9.74l12.69 15h4l-2 2v1l23 28v-2l7.8 9.18c2.61 3.98 6.22 12.66 11.37 13.8 5.85 1.29 4.94-5.16 10.85-5.77 2.1-.1 3.28.52 5.98 0 5.28-1.31 16.15-8.97 21-12.21l31-22.28c4.81-4.06 13.68-11.65 15-17.72l4 1c.57-9.74 6.97-11.41 14-16.75 4.33-3.29 7.84-6.84 11-11.25l-10-3c4.51-4.43 5.8 2.16 10.99 1.14 1.9-.37 3.32-1.81 4.56-3.2 4.43-4.94 3.18-10.72 3.45-16.94 1.11.4 3.18 1.28 4.29 1.3 4.73.07 9.76-6.8 12.21-10.3 1.79-2.56 5.83-8.59 7.87-10.53l4.99-4.02c3.01-3.28 1.49-4.56 6.64-9.45.18-10.89 8.18-7.78 13-16-.28-3.62 5.78-10.18 9.09-11.74l6.91-1.26-3-1v-2.2h5.83l6.04-5.8 11.23-14 4.9-10v3c5.09-3.82 9.09-8.89 11-15v2h1l1-3-2-1v-1l4 1 3-10.96c1.4.14 2.31.49 3.79 0 2.86-.82 9.44-9.2 10.14-12.03.93-3.72-3.12-7.43 3.07-8.01 3.9-3.14 4.8-1.8 7-7l-3 1 1-5c4.85-.13 7.09.29 8-5 5.8-2.01 12.18-12.76 15.86-17.83l27.72-37.17c4.24-5.87 8.62-14.09 15.42-17v-1l-2-2c6.57.21 11.28-7.26 15.38-11.72 4.82-5.23 3.57-4.8 6.99-9.28 4.44-5.79 9.14-9.67 11.24-17 2.45-8.55 3.23-28.42 8.3-34-1.93-7.69-.07-7.07 0-14.58L5383 3602c.03-22.36-.6-32.76-4.61-55-5.82-32.24-14.74-63.84-24.73-95l-10.32-29-4.38-17-4.46-17-1.68-6c-.93-5.37 2.39-5.95 1.52-11l-10.34-28c-7.22-4.5-1.59-11.2-9-16 .63-6.15-3.19-11.6-5.74-17l-4.14-12-7.12-14c-3.93-1.06-2.69-3.46-4.41-6.59l-2.72-4.45c-1.51-3.3-.86-4.39-4.13-10.96-1.62-3.26-3.49-5.48-1.3-9 1.81-2.89 7.47-6.87 11.8-14l31.02-61 7.49-14 13.5-28 22.22-45 35.75-74 17.64-40 17.92-40 12.42-32 15.74-38 8.75-26 20.26-57 4.07-15 20.86-71 6.37-21 1.64-9 10.69-44 8.17-43c5.28-30.43 8.24-61.26 10.34-92l.95-11v-13l.96-12v-15zm-4282 140h-1l1 1v-1zm62 12h-1l1 1v-1zm-3 3h-1l1 1v-1zm-1 1h-1l1 1v-1zm29 1h-1l1 1v-1zm5 5h-1l1 1v-1zm-733 24c3.98-.95 5.35-.86 9 1l-2 3-7-4zm4050 57l-2 3v-1l2-2zm-2916 24c-3.17-3.07-4.63-3.46-9-3l9 3zm2763 1h4v3l-4-3zm-3175 8h1l-1 1v-1zm3134 4l2 3-5 1 3-4zm-3809 1c2.27 3.39 1.9 5.48-2 7l2-7zm3813 0h1l-1 1v-1zm-3145 1h1l-1 1v-1zm10 0h3l-1 3-2-3zm3124 0c.56 2.58.05 2.48-2 4l2-4zm-3131 7l4 2-4-2zm11 2h1l-1 1v-1zm6 0h1l-1 1v-1zm16 8h1l-1 1v-1zm3033 1h-2l-1 3 3-3zm233 0c5.61 2.07 21.79 14.45 26 19l-31 2-14 .96h-14l-14 1.04-26 1c-4.55.01-11.06 2.16-14-2l64-13.08 16-4.59 5.46-1.99 1.54-2.34zm-261 5h-1l1 1v-1zm8-1h1l-1 1v-1zm2 0h1l-1 1v-1zm-9 2h-1l1 1v-1zm-2990 3l2-1 1 3-3-2zm-13 2c3.12-1.48 3.45-1.22 6 1l-6-1zm-686 6h-1l1 1v-1zm3976 2l14 5c1.6 6.62 6.44 6.72 12 9l1 5-27-19zm-2748 3l-3 3 3-3zm2420-1h1l-1 1v-1zm365 0l4 4-4-4zm-2783 3l-3 3 3 1 1-1-1-3zm2759 0h-1l1 1v-1zm3 0h1l-1 1v-1zm-143 1h1l-1 1v-1zm-4 1h1l-1 1v-1zm-3 1h1l-1 1v-1zm-2608 2c-2.13 3.35-1.23 4.16 2 6l1-3-3-3zm2605-1h1l-1 1v-1zm-3 1h1l-1 1v-1zm-20 8c2.74-4.24 7.25-5.82 12-4l-12 4zm-2583-1h-1l1 1v-1zm2575 4l5-5 2 3-7 2zm-3199-3l10 4 1 4-3-1c2.93 2.93 6.78 5.72 11 6 1.21 3.4 3.29 2.97 5.37 5.43 3.18 3.74-.8 5.08 7.63 8.57l-2-6c7.46-1.15 16.36 4.86 9 10l1 5c-10.05-3.11-11.47-6.68-15.13-8.86-3.02-1.8-5.06-.97-7.62-2.35L1326 2793l4-1-9-6 2-5-4-1-1 1 1 3-11.34 1.39-.66 1.61c-7.56.18-6.77 3-14 6 2.28-4.82 6.43-9.16 11.42-11.29 5.33-2.28 8.92-1.34 13.58-5.71zm4 2h-1l1 1v-1zm3391-1l7 5-7-5zm-209 5c1.94-3.09 2.53-3.07 6-4l1 1v2l-1 1-13 5c1.74-3.73 2.43-7.67 7-5zm11-3h1l-1 1v-1zm-3185 1h1l-1 1v-1zm2 1h1l-1 1v-1zm3398 2l5-1-5 1zm-235-1l-1 6c-3.47-2.78-2.13-3.75 1-6zm226 0l7 5-7-5zm-3397 2h-1l1 1v-1zm3405 3h1l-1 1v-1zm2 1c5.8.15 8.87 2.73 11 8l-11-8zm135 8l17-1h24l17-1h40l15-1 27-1.29 38-4.71h21l43 5h16c1.86 5.27 3.19 5.6 1 11h2c-.74 4.03-.4 10.55-4.27 12.98-1.87 1.16-5.48 1.03-7.73 1.3l-22 .72-14 1-32 1-10 .96h-8l-19 1.04-10 1h-10l-13 1-12 .91-26 1.18-30 2.16c-4.14.12-11.05 1.66-14.96 0-3.43-1.17-6.74-6.36-9.12-9.25l-11.22-14-7.7-9zm-3537-7h-1l1 1v-1zm19 0h1l-1 1v-1zm3399 4h1l-1 1v-1zm-3457 1l-7 10c.92-5.56 2.98-6.26 7-10zm47 1h-1l1 1v-1zm2 1h-1l1 1v-1zm4 1h-1l1 1v-1zm20 0h1l-1 1v-1zm3384 2c4.99-1.43 5.02-1.71 10 0l-1 5 3-1v4l-12-8zm-3379 1c8.17 3.52 18.25 8.1 24 15l-3 4-6-1-9-13c1.77 5.67 4.88 14.25 4 20h-5l-3.57-15.09-1.43-9.91zm3071 1h1l-1 1v-1zm-3083 6c-2.14-3.14-2.31-3.17-6-4v3l6 1zm3080-5l3 8-23 10c.03-2.76-.1-6.33 1.31-8.79 2.31-4 14.1-7.19 18.69-9.21zm-3097 1h1l-1 1v-1zm3423 1l3-1 1 4 3-1c-2.83 3.54-4.81.68-7-2zm-329 2h-1l1 1v-1zm-3153 1h1l-1 1v-1zm3480 0h1l-1 1v-1zm3 2h1l-1 1v-1zm-3486 2h1l-1 1v-1zm-1 2l-3 9-3-1 6-8zm3493 0h1l-1 1v-1zm18 1c1.83 1.63 1.76 1.66 1 4l-1-4zm-3392 2l3 5-5-1 2-4zm3379 0h1l-1 1v-1zm2 2l3-2 3 1 5 8-11-7zm-3411 0h1l-1 1v-1zm2846 1h1l-1 1v-1zm203 1h1l-1 1v-1zm-3145 2c.78 4.46-2.02 5.8-4.65 8.95-4.73 5.67-4.15 9.94-15.35 15.05l-5 12-6.31 9.54-11.97 9.9L1210 2893c7.02-11.47 12.7-10.21 12-21l4 3 3-5c-3.26-6.88-4.91-8.25-5-16h6l-2-4c3.4-4.25 18.72-14.06 24-16.45 8.53-3.88 11.34-1.96 17-11.55zm135 0h1l-1 1v-1zm3387 0h1l-1 1v-1zm-3401 1c3.21 1.93 3.21 2.39 4 6l-4-6zm16 0c3.87 1.04 4.67 1.11 6 5l-6-5zm2978 1h2l-1 3 7-2-2 6-9-2 1-3 2 2v-4zm20 0h1l-1 1v-1zm-2675 2h1l-1 1v-1zm2670 0h1l-1 1v-1zm390 0h1l-1 1v-1zm17 0l1 10 4-6 1 1c-2.21 4.18-2.74 4.5-1 9v-5l8 9 17 14-38-26 8-6zm-3409 1h1l-1 1v-1zm360 0l19 12.92 15 10.08c-9.35-4.5-27.53-15.36-34-23zm-38 1h1l-1 1v-1zm2675 0h1l-1 1v-1zm398 0h1l-1 1v-1zm-3378 1h1l-1 1v-1zm4 3h1l-1 1v-1zm2943 3c2.18-2.38 3.02-1.78 6-1l-4 2-2-1zm8-1h13c-4.89 1.24-8.51 3.15-13 0zm-2948 0h1l-1 1v-1zm276 1h1l-1 1v-1zm2661 0l2 5h-3l1-5zm-2934 1h1l-1 1v-1zm3 2h1l-1 1v-1zm2941 0h1l-1 1v-1zm-8 3h1l-1 1v-1zm-3 1h1l-1 1v-1zm-2923 1h1l-1 1v-1zm2920 0h1l-1 1v-1zm-3 1h1l-1 1v-1zm-3 1h1l-1 1v-1zm-8 3h1l-1 1v-1zm-2674 2h1l-1 1v-1zm2666 1h1l-1 1v-1zm-2537 2h1l-1 1v-1zm-343 3h1l-1 1v-1zm347 0h1l-1 1v-1zm-344 2h1l-1 1v-1zm2866 0h1l-1 1v-1zm-2668 1l-5 6 5-6zm2658 0h1l-1 1v-1zm526 0c4.57 1.96 6.5 3.13 8 8 5.7-.75 8.7 2.7 12.32 6.73 8.06 8.96 6.83 18.67 18.68 24.27 1.03 4.1 11.58 14.46 14.91 17.99l16.92 19.24c4.58 5.89 8.75 13.78 14.17 18.77l-2 3 5 4c-1.81 3.97.13 7.15 1.58 11 3.13 8.34 4.98 12.03 6.42 21v-2h1c-2.55 8.35-3.27 5.15-1 14l4-1v-4l9.4 29.91c3.49 7.09 9.53 9.54 7.6 19.09l-3-1 1 6 2-2h1l-4 3-4.95-17-8.37-21-8.8-17.09-5-10.91-10.61-19-6.58-14-6.38-10-33.6-53-29.71-34zm-519 1h1l-1 1v-1zm-2512 1h1l-1 1v-1zm2505 0h1l-1 1v-1zm281 14c-2.64-11.28 8.11-14.13 17-13.92 1.85.05 5.98-.11 7.4.97 1.74 1.32 1.53 4.02 1.6 6.17h-16.7l-3.3-1.22c-1.52 4.43-2.29 5.18-6 8zm-277-13h1l-1 1v-1zm-6 1v0zm-2499 1h1l-1 1v-1zm2502 0h1l-1 1v-1zm-2668 3h1l-1 1v-1zm2662 1h1l-1 1v-1zm-2665 1h1l-1 1v-1zm176 0h1l-1 1v-1zm2801 0h1l-1 1v-1zm-3145 2h1l-1 1v-1zm2649 1h-1l1 1v-1zm-2485 0h1l-1 1v-1zm184 0h1l-1 1v-1zm2478 1c-1.2 4.54-6.28 8.34-10 11l2-5 8-6zm-2665 1h1l-1 1v-1zm191 1h1l-1 1v-1zm2805 24l46-14.64 9-3.96c3.58-1.46 13.2-5.97 16.71-4.21 1.49.75 1.58 1.58 2.29 2.81l-3 1 5 2-.81 12.51-17.19 8.27-51 22.22 5-8c1.95 1.8 3.56.53 3.69-2.04.17-3.51-4.69-8.22 1.31-9.96l-1-4-6 4-5-5-5-1zm-3000-22h1l-1 1v-1zm198 0h1l-1 1v-1zm-602 1h1l-1 1v-1zm3366 0l6 5-5 2 3 1-2 11-2-19zm266 1h-1l1 1v-1zm-3374 0h1l-1 1v-1zm2808 1h-1l1 1v-1zm567 0h-1l1 1v-1zm-3027 0h1l-1 1v-1zm2788 0l1 7-1-7zm-3132 2h1l-1 1v-1zm136 0l-4 5 4-5zm-134 2c4.33 2.77 5.49 5.79 0 8l-1-1 1-7zm349 1h1l-1 1v-1zm-343 3v0zm122 0c-1.06 4.47-8.29 11.29-12 14l12-14zm2500 2h-1l1 1v-1zm-2272 0h1l-1 1v-1zm2435 0h1l-1 1v-1zm-2432 2h1l-1 1v-1zm-346 1h1l-1 1v-1zm-14 1h1l-1 1v-1zm11 1c4.36 1.91 6.16 2.08 7 7l-7-7zm-294 2c-.95 3.58-3.09 4.89-6 7l6-7zm650 0h1l-1 1v-1zm2389 25c4.96-6.62 14.45-13.13 21.04-18.52 2.85-2.33 5.14-5.43 8.96-5.48l-30 24zm-2735-24h1l-1 1v-1zm3022 39c4.4-10.03-14.32-29.46 2-34.67l9-1.78c4.84-.97 4.7-1.3 10-1.55l2 13c-2.53-4.67-3.47-5.37-8-8l-2 3 1-3-7 2 1 3h-7v3c3.88-.8 4.15-.77 7 2l-11 1 3.81 7.91.69 4.12 1.5 3.97 3-1-3 8-3-1zm95-37h1l-1 1v-1zm-2764 2h1l-1 1v-1zm-925 2h-1l1 1v-1zm657 9c3.02-4.76 4.78-7.51 10-10l-10 10zm271-9h1l-1 1v-1zm3 2h1l-1 1v-1zm2728 2c3.38 8.59-5.61 9.84-12 10 2.64-6.86 7.66-2 12-10zm-3402 1l-3 4 3-4zm334 2h1l-1 1v-1zm347 0h1l-1 1v-1zm2762 1h1l-1 1v-1zm-3106 1h1l-1 1v-1zm3024 0c1.88 2.65 2.58 3.73 2 7l-2-7zm35 1h-1l1 1v-1zm-2711 0h1l-1 1v-1zm2710 1h-1l1 1v-1zm-3401 1h1l-1 1v-1zm401 0l-5 6 5-6zm2945 0h1l-1 1v-1zm47 0l-3 2 3-2zm-3387 3h1l-1 1v-1zm346 0c6.65 2.58 17.51 10.79 21 17 3.51-1.06 4.11-.69 6-4h5c-9.62 10.74-15.76 2.35-23.09-4.98L1541 2919zm346 0h1l-1 1v-1zm2685 3c1.44-2.11 1.42-2.3 4-2l-4 2zm15-3h1l-1 1v-1zm-3402 1h1l-1 1v-1zm706 2h1l-1 1v-1zm2673 1l5-1-2 4-3-3zm17 2l3-3-3 3zm53-3h1l-1 1v-1zm-401 8l12-7-3.91 16v11l-8.09-20zm-2339-6h1l-1 1v-1zm2666 0h1l-1 1v-1zm75 1h1l-1 1v-1zm-3441 1h1l-1 1v-1zm703 0h1l-1 1v-1zm2734 3l3-3-3 3zm-58-2h1l-1 1v-1zm-3395 1h1l-1 1v-1zm723 1h1l-1 1v-1zm-259 13c5.04-3.23 7.07-14.83 15-9.57l3.86 3.3c1.75 1.72 2.01 2.19 3.14 4.27l-6-4 1 6-6 2 4-1c-2.07 3.97-3.36 5.44 1 8v5l-2-1-1 1-1 4 9 4v-4c5.92 3.84 4.06 6.02 7.8 10.87 2.9 3.77 3.67 2.48 7.2 8.13-11.09-6.38-21.86-14.9-29.87-24.83-4.87-6.03-5.02-2.94-6.13-12.17zm-466-11c-.61 4.19-3.85 7.37-7 10l7-10zm728 0h1l-1 1v-1zm2729 0l2 5c-2.44-1.85-2.06-1.96-2-5zm-2726 2h1l-1 1v-1zm3000 2h-1l1 1v-1zm-2993 3h1l-1 1v-1zm2613 0h1l-1 1v-1zm75 0h1l-1 1v-1zm-2685 2h1l-1 1v-1zm2689 0l9 12-6 1-3-13zm-3438 2l-7 13c3.13 2.13 1.84 5.4 0 8 2.11 2.99 1.75 3.48 1 7l2-2h1l-1 4-11-2 1.45-7.72 9.51-15.99 4.04-4.29zm3344 3l5-2 1 3-4-1 1 2-3-2zm153 15l26-8.33 31-8.67c2.59 4.59 6.98 13.46 3.71 18.59-1.34 2.1-4.51 3.14-6.71 4.19l-16 7.53c-4.39 2.01-13.53 7.29-18 6.69 1.13-1.03 2.09-1.48 2.64-3.11 1.18-3.49-3.82-13.55-5.64-16.89l2-1 1 1c-5.68-6.26-11.04-.61-7 5l1 2-1 6-4 2 2-9c-4.23-.04-5.18-.85-6-5l-5-1zm-2742-16h1l-1 1v-1zm-251 2h1l2 2-4 3 1-5zm254 0h1l-1 1v-1zm2577 2h1l-1 1v-1zm-2846 1h1l-1 1v-1zm2917 0h1l-1 1v-1zm-2915 1h2l1 2-1 1-2-3zm2839 0h1l-1 1v-1zm-2565 1h1l-1 1v-1zm2562 0h1l-1 1v-1zm-3 1l6 7c-4.06-1.99-4.71-2.66-6-7zm77 0h1l-1 1v-1zm-2887 1c4.89 2.81 9.52 4.77 9 11-3.84-1.22-5.37-2.17-3-6l-6-5zm2808 0c2.79 8.75-4.87 12.55-12 5l12-5zm-2828 3l4 3c-2.87-.55-2.87-.29-4-3zm2839 0h1l-1 1v-1zm-3341 2h-2c-1.77 4.84-2.53 6.82 1 11l1-11zm3481 0l2 7h-2v-7zm-2697 1h1l-1 1v-1zm2526 3l4-3v2c3.54-.47 3.8-.39 5 3-3.3.11-4.16.38-5-3l-4 1zm-2788-2l3 4-3-4zm2799 26c-4.11.58-12.27 3.57-15.57 1.11-2.48-1.85-2.97-6.27-3.79-9.11-2.72-9.29-5.49-14.18 6.36-17-1.5 3.42-1.43 3.78-5 5l3 4v11c3.25 2.08 3.35 2.19 4 6l7-4 4 3zm51-25h6l-1 3h-1l-2-2-1 3-1-4zm116 5l16-5 1 3c-4.89 2.51-5.19 6.11-10 3-3.23 2.58-5.35 3.49-7-1zm-2954-4h1l-1 1v-1zm254 0h1l-1 1v-1zm-779 1h1l-1 1v-1zm783 2h1l-1 1v-1zm2564 7c4.35-2.42 10.21-6.71 15-4l-15 4zm-2848-4h-1l1 1v-1zm2977-1h1l-1 1v-1zm-2689 1h1l-1 1v-1zm2658 0c2.27 2.96 3.03 5.35 2 9l-2-9zm-362 2h1l-1 1v-1zm-3101 2h1l-1 1v-1zm560 1h1l-1 1v-1zm2842 0h1l-1 1v-1zm-6 1c8.97 3.73 8.48 7.36 4 15l-4-15zm-40 2h1l-1 1v-1zm-2807 1l4 4h-4v-4zm-550 1h4l-1 4h-2l-1-4zm557 0h1l-1 1v-1zm12 0h1l-1 1v-1zm2962 0l3 4-3-4zm-3002 1l9 2 1 4 5-2v2h-4l4 2 1 3c-5.15-2.51-12.26-6.72-16-11zm292 1l6 6-6-6zm-824 1h1l-1 1v-1zm577 0l4 3-4-3zm2881 0h1l-1 1v-1zm72 0l5 2-8 2-1-3 4 2v-3zm-1366 3l-1 4c4.31-.68 5.78-.94 9-4h-8zm1163-1h1l-1 1v-1zm-2745 1h1l-1 1v-1zm1591 1h-1l1 1v-1zm-1589 0h1l-1 1v-1zm-32 1l3 1c-2.12 9.74 6.75 2.88 9.97 7.56 1.09 1.65.4 3.69 0 5.44l4.03 2 4-1c8.49 8.37 9.21-3.43 19-1l-2-6 5 2-1-4h-6l1-4 21 11.69 21 10.89c3.65 2.04 12.32 5.27 14.55 7.81 4.44 5.04-3.28 13.83-6.53 13.88-1.37.02-1.99-.65-3.02-1.27l3-2-6.01 1.2c-3.28-.09-16.88-5.99-20.99-7.52-19.91-7.43-45.25-20.09-63-31.68l3-5zm2972 0h1l-1 1v-1zm-2717 28c3.75-8.62 3.34-5.33 8.14-11.13 4.5-5.42 9.71-12.31 15.86-15.87l6 10-4 1c-.42 6.28-6.3 3.88-8-1-9.01 3.73-10.14 11.92-18 17zm1374-27h1l-1 1v-1zm1252 0l4 2 3 9-5-8-4 1 2-4zm8 0h1l-1 1v-1zm-3444 1h1l-1 1v-1zm2173 1h-1l1 1v-1zm1235 1h1l4 4-3 4-2-8zm103 1c3.53-2.68 4.67-2.99 9-2-3.48 2.47-4.79 2.81-9 2zm-2945-2h1l-1 1v-1zm2554 0h1l-1 1v-1zm395 1h-1l1 1v-1zm-1366 2l8 2c-1.52 3.77-2.09 3.87-6 3l1-3-3-2zm973 0h1l-1 1v-1zm-3124 1h1l-1 1v-1zm565 1h-1l1 1v-1zm415 0l4 2-4-2zm2146 1h1l-1 1v-1zm-2288 2h-1l1 1v-1zm147-1h1l-1 1v-1zm-987 2h1l-1 1v-1zm3130 0h1l-1 1v-1zm349 1l3 3h-3l1 4-5 1 4-8zm30 1l5-1 1 4-6 1v-4zm-100 1h0zm-2815 5c-1.59-2.13-1.57-2.15-4-1l4 1zm2808-3h0zm-2564 0h1l-1 1v-1zm2648 0h2l-2 6v-6zm-99 5l14-4c.1 3.84.75 3.99-2 7l-6-4c-1.2 3.52-1.61 3.56-5 5l-1-4zm474-3c4.1 1.2 3.53.69 7 1.31 7.04 1.28 4.85 2.55 13-1.31l1 3c-4.57 2.41-5.78 4.91-6 10l-14-11 2 11-3-13zm-371 2l4-1-1 4-3-3zm23 0l4 6 1-3c2.02 6.4 1.96 7.9-1 14h-2l-.61-8-1.39-9zm358 5l-3-2 3 2zm-491-2l5-1-1 4-4-3zm499 5c.63-3.76.65-4.11 4-6l-4 6zm-3050-5h1l-1 1v-1zm2630 3c1.13-2.71 1.13-2.45 4-3l-4 3zm6-3h1l-1 1v-1zm-100 31c-1.94-4.61-7.55-18.4-4.82-22.7 1.48-2.34 8.12-4.68 10.82-5.55 3-.98 4.94-1.61 8-.75l-1 4c-9.65-2.67-9.05-.24-9 8l2-2h1l1 12c2.5.2 5.89 1.54 7-1l16 1-31 7zm123-27h1l-1 1v-1zm-2675 1l-2.82 11v19c-4.91-3.13-4.54-3.73-5.18-9-7.97 9.19-5.36 6.64-8 19 3.85.8 3.99 1.71 6 5v7l-3 1 2 4h-5l1-4c-2.95-1.72-2.97-1.59-3-5l-5 6 10.26-33 12.74-21zm2558 1l2 4-2-4zm9 0h1l-1 1v-1zm72 1h1l-1 1v-1zm37 0h1l-1 1v-1zm-576 2h-1l1 1v-1zm964-1l4 4-4-4zm-965 2h-1l1 1v-1zm2 0h-1l1 1v-1zm951-1c1.69 3.32 2.77 7.32 2 11l-2-11zm-440 5h4l-2 8-2-8zm-513 2h-1l1 1v-1zm499 3c1.52-3.77 2.09-3.87 6-3l-6 3zm44-4h1l-1 1v-1zm37 0c2.01 2.65 2.83 3.66 2 7l-2-7zm-578 2h-1l1 1v-1zm504-1h1l-1 1v-1zm-2768 2h-1l1 1v-1zm3238-1l3 3-3-3zm-484 3h0zm-474 2h1l-1 1v-1zm938 0c1.92 3.28 3.05 7.28 2 11l-2-11zm26 0c4.21 2.19 13.72 10.52 16.42 14.17 2.73 3.69.42 3.93 10.16 15.83 3.9 4.77 6.79 10.85 13.42 11v5c4.56 1.45 4.57 2.65 6 7h2l3-4 2 2v1c-4.95 3.31-2.51 5.08.73 9l11.27 14-21.17-23-26.37-30-10.85-14.96-6.61-7.04zm-3903 1c.65 3.11-1.13 13.75-2.13 17-.86 2.81-2.73 5.45-3.06 8-.86 6.64 3 17.58-3.81 22v2c5.64.73 6.54 1.45 8 7l4-2-1 7c-9.45-6.72-5.65-6.28-14-4l3-22-4-1 4-2-3-1 4 1 8-32zm3437 0h1l-1 1v-1zm-52 2h-1l1 1v-1zm53 0l4 1-3 4-1-5zm30 1h1l-1 1v-1zm37 0l1 5-1-5zm313 1h-1l1 1v-1zm-3006 2h1l-1 1v-1zm2628 2h1l-1 1v-1zm2 0h1l-1 1v-1zm28 1l3 7h-4l1-7zm37 0l7 5-2 6-5-11zm-65 4h1l-1 1v-1zm-3101 1h1l-1 1v-1zm6 9c-2.03 6.12-6.67 10.97-10.58 16l-17.84 24-20.46 27-15.47 20c-2.07 2.68-7.27 9.58-9.82 11.25-4.72 3.08-15.84-2.86-15.98-8.34-.08-2.76 3.16-6.7 4.73-8.91l13.05-18 40.24-52c4.89-5.68 14.06-17.12 21.67-18.29 1.76-.27 7.37.96 9.46 1.29l-2 5 3 1zm3100-8l4 1-1 5-3 1c1.51 3.51 2.8 6.14 2 10l-3-12 1 2-3-4 3-3zm-3108 2h-1l1 1v-1zm3542 1h1l-1 1v-1zm-3545 2h-3l-1 3 4-3zm3132 2l4-2-4 2zm72-2c3.26 2.53 3.76 7.2 5 11-4.3.98-4.95.51-9-1v-4l4-6zm-3193 1h1l-1 1v-1zm3164 0l1 4-1-4zm-44 3c8.65-3.99 9.22.1 12.42 11a405.26 405.26 0 0 0 16.58 46l-9 2c-.95 3.2-5.17 10.29-9.38 7.16-1.95-1.45-5.21-9.52-6.56-12.16l-13.8-27c-1.76-3.64-4.8-9-4.26-13l3 8 6-3 3 2 5-1-1 3 9-13c-5.04 1.6-6.73 2.18-12 1l3-4h-4l3-5-1-2zm48 0h1l-1 1v-1zm306 0c1.85 2.86 2.18 3.75 1 7l-1-7zm-308 3h1l-1 1v-1zm-2706 4v4l3-1v-2l-3-1zm-250 0l9 1-9-1zm11 0h1l-1 1v-1zm2 1h1l-1 1v-1zm2880 1l1 4-1-4zm-2907 2h0zm35 0h1l-1 1v-1zm2885 0h1l-1 1v-1zm-2883 1h1l-1 1v-1zm2936 0h1l-1 1v-1zm308 1c1.83 1.63 1.76 1.66 1 4l-1-4zm-3286 1h1l-1 1v-1zm260 0l3 8-2-1-1 1-1 6c3.54 1.31 3.81 1.4 5 5h-5l4 1-1 5-5-2-2 5 5-28zm2748 0l1 5-1-5zm-3557 1h1l-1 1v-1zm547 0h1l-1 1v-1zm276 1l-1 4 1-4zm2647 0h1l-1 1v-1zm-2873 1h1l-1 1v-1zm2616 1h1l-1 1v-1zm623 0l2 5 3-1-3 8-2-12zm-3306 13c2.29-4.24 7.66-11.54 13-11l-3 1 1 4-11 6zm3366-12h1l-1 1v-1zm-3297 1l4 4-4-4zm2879 1h-1l1 1v-1zm361-1h1l-1 1v-1zm-360 2h-1l1 1v-1zm-2668 2h1l-1 1v-1zm3085 0l1 4-1-4zm-3293 1h1l-1 1v-1zm2958 0h1l-1 1v-1zm-3550 2h1l-1 1v-1zm594 1h1l-1 1v-1zm2944 0h1l-1 1v-1zm-14 1h1l-1 1v-1zm-2929 1h1l-1 1v-1zm2957 1h1l-1 1v-1zm-3034 1h1l-1 1v-1zm3005 0c1.88 2.65 2.58 3.73 2 7l-2-7zm10 13c-1.09-1.82-4.45-5.97-4.1-7.88.58-3.16 9.11-7.57 13.1-3.12l-3-1 1 3-5 1 2.8 10 6.2 9-11-4c.93 7.9 1.32 6.5 7 8l-3 1-1 6-10-27 7 5zm-3016-11h1l-1 1v-1zm3036 0h1l-1 1v-1zm-3172 2h1l-1 1v-1zm135 0c.53 3.95-1.31 6.3-4 9l4-9zm44 0h1l-1 1v-1zm-196 2h0zm3190-1h1l-1 1v-1zm-3196 6l5-3-5 3zm42-4h1l-1 1v-1zm3486 0h2l1 18h-3l1-5 1 3-2-16zm-3870 1h2l1 4-4 4 3 3-7-7 3-1 1 4 1-7zm386 0h1l-1 1v-1zm3153 0h1l-1 1v-1zm-3548 1l3 3-3-3zm397 0c3.87 2.08 8.94 5.2 9 10l-9-10zm194 0h1l-1 1v-1zm-30 1h1l-1 1v-1zm-212 1l-3 4 3-4zm192 0l-2 3v-1l2-2zm3008 0h1l-1 1v-1zm-2987 1h1l-1 1v-1zm30 0h1l-1 1v-1zm193.17 0v10.91l2.83 8.09c2.58 2.41 1.42 4.74 1 8l2-2h1l4 4v-4c5.09 1.33 19.42 9.17 23 13-3.39-1.3-7.46-2.74-11-3.49-11.3-2.37-23.78-1.78-24-17.51l1.17-17zm-749.17 2l4 3-7 2 3-5zm468 0h1l-1 1v-1zm59 0h1l-1 1v-1zm3318 1h-1l1 1v-1zm-3852 0c3.54 3.89 1.53 4.45 1 9-6.78 2.22-9.91 4.22-15-2l3-1 2 1c2.34-2.57 3.83-1.74 7-1l2-6zm507 0c-1 3.86-7.8 11.33-11 14-.56-6.76 5.29-8.57 11-14zm57 0c1.47 3.71 2.18 17.4-1.31 19.84-3.48 2.43-7.12.34-13.69 5.16-3.48-4.9-10.99-12.96-11-19l6.18 7 15.99-2.04 3.83-1.96-4-2 3 1 1-8zm-248 1l-1 15 1-15zm158 0h1l-1 1v-1zm-478 1h1l-1 1v-1zm477.01 1c.39 1.75.26 4.19 1.08 5.71 1.27 2.32 10.25 7.77 12.91 8.61 2.13.66 3.83.62 6 .68l-1-2 1-1h4c-.54 2.06-1.04 4.79-3.27 5.72-1.72.71-4.09-.26-5.73-.86-3.94-1.42-12.96-5.43-14.99-9.04-1.41-2.56-.64-5.19 0-7.82zm62.99 1h1l-1 1v-1zm231 0h1l-1 1v-1zm3165 0l6 6-6-6zm-421 2h5l-1 5c-3-1.52-3.09-1.78-4-5zm-3131 1h1l-1 1v-1zm3120 1h1l-1 1v-1zm24 1l7.42 21 9.46 33 7.12 25c-5.89 1.55-8.16 3.81-14 1-1.15 3.27-3.19 5.04-6.01 1.68-1.7-2.03-3.71-8.87-4.66-11.68l-22.33-58c3.52 2.35 4.14 2.68 4 7l10-1-2-3c4.36-10.73 8.37-6.27 11-15zm-3141 2h1l-1 1v-1zm3556 0l4 5 5-4c-.64 6.27-1.83 5.07 1 11l-10-12zm-3924 3l3 2-3 1v-3zm3782 0v0zm-291 5c.04-3.54.67-3.45 4-3l-4 3zm-3510-3h1l-1 1v-1zm14 0l1 10 7 4 1 5-20-16c2.71-1.7 3.64-2.19 5 1l2-2h1l1 4 2-6zm377 1c3.69 5.37-1.95 8.92-6 12-8.06 6.13-12.86 12.3-21 2 1.79.85 4.21 2.56 6.04 2.9 5.09.97 10.85-3.22 11.96-7.9 5.05-1.61 8.7-3.26 9-9zm3134 1h-1l1 1v-1zm-13 1h3l-1 3-2-3zm-3194 1l2.17 9.69L1496 3138c-3.78-.01-11.67.2-13.98-3.31-1.4-2.14-1.02-8.01-1.02-10.69zm30 0h1l-1 1v-1zm205 1h-1l1 1v-1zm2969 0h-1l1 1v-1zm-3502 0h1l-1 1v-1zm325 0h1l-1 1v-1zm3510 0h2l-1 7-1-7zm-3500 1l3 3-3-3zm-16 2c-.3 3.71-2.17 4.85-5 7l5-7zm3172 0h1l-1 1v-1zm291 0v33l-1 15c-5.65 3.14-2.87 4.86-6 11 2.76.85.1 3.42-1 5l6-1c-.55 2.87-.29 2.87-3 4 1.31 3.59 2.21 4.66 0 8l-4-4 4 7-4-3-5 28c-6.18-.62-8.04-1.05-7-8l3 1 1-4-7-3 7 1 2-4v-6l3-1-3-2c6.3-5.53 5.4-7.32 6.17-15l.84-10 2.36-29c-.03-3.76-1.3-4.48-1.37-12h6l1-11zm-3443 1l5 5-5-5zm3595 0l3 3-3-3zm-443 5h-1l1 1v-1zm-491 0h1l-1 1v-1zm492 1h-1l1 1v-1zm446-1l5.35 2.39L5135 3151l-14-17zm-3163 5h1l-1 1v-1zm3061 1c1.39 3.5 1.39 7.5 0 11v-11zm-3054 3l7 5-7-5zm-771 3l3 3-3-3zm779 3l6 6-6-6zm3178 5h1l-1 1v-1zm-3946 1h1l-1 1v-1zm774 1l6 6-6-6zm3159 0l3 3-3-3zm12 2l2 1v1l-2 1-1-2 1-1zm-9 2c2.53 1.55 3.17 1.94 3 5l-3-5zm3 0h1l-1 1v-1zm-3158 4l6 6-6-6zm3031 2v0zm129 1h1l-1 1v-1zm-3924 2h1l-1 1v-1zm3929 3c.48-1.14.88-2.9 2.65-1.83 1.47.88 2.8 4.29 3.71 5.83l6.64 9-5 1-8-12 4 2-7-6h1l2 2zm-3919 3l10-3c1.31 6.75 1.92 6.75 8 10l-2 5c3.04-3.21 3.43-4.59 8-4-4.82 7.16-13.39 5.18-17-2l4-1-11-5zm23-3h2l1 3-5-1h1l1-2zm739 1l6 6-6-6zm-766 1h1l-1 1v-1zm3788 3v0zm-3779 4h1l-1 1v-1zm20 2h1l-1 1v-1zm3705 0c.96 2.61 1.11 3.11-1 5l1-5zm-3703 1h1l-1 1v-1zm745 0l6 6-6-6zm3161 2h1l-1 1v-1zm-3899 6c1.84-3.82 2.86-4.34 7-5-2.06 3.95-2.75 4.03-7 5zm3894-5h1l-1 1v-1zm2 2l3 6-3-6zm-3911 3c4.43 1.44 5.67 1.38 7 6l-7-6zm616 1c4.03 2.63 10.7 4.8 11.19 10.04.65 7.05-6.13 12.09-8.84 17.97l-19.93 33.99c-3.73 6.42-11.7 21.37-16.42 26 2.2-8.73-1.69-6.93 7-13l-6 1c4.09-6.01 7.14-6.72 4-14l-4 7-2-6-17 14c.18 5.57-1.84 5.39-4.88 9.44-4.12 5.5-2.27 6.4-9.12 11.56l29.98-47 25.59-36 10.43-15zm3147 1v0zm152 2h1l-1 1v-1zm-3903 4l3-3c-.8 4.86-.19 5.54 4 8 2.09-3.03 3.59-2.96 7-4l-1 3 2-5h4c9.15 11.69 15.16 4.03 19 15l4-2v7h7l-2 1 5 1-1 3h-1l-2-2-1 3h7l-2 3c5.84 5.36 2.1 7.19 5.28 12.96 2.32 4.21 4.83 4.03 8.11 6.37 4.5 3.23 6.52 7.07 12.61 7.67.67 5.17 6.74 10.48 12 9l2 9c-13.76 8.64-2.6 9.36-14 26l-6-1-1-2h-1c-1.46 5.9-12.03 5.7-13 14-7.45 3.05-6.85 3.13-12 9 2.04-7.62 7.44-13.66 11.91-19.96 3.2-4.51 5.01-8.55 11.09-8.04l12-22c-8.58-2.74-18.88-12.6-26-18.39l-32-28.19c-6.94-6.01-20.06-16.52-25-23.42l3 1zm754-2l5 5-5-5zm3151 1h1l-1 1v-1zm-3878 1h2l1 3-3-3zm3880 2h1l-1 1v-1zm-216 3h-1l1 1v-1zm59-1v0zm159 1h1l-1 1v-1zm-3147 1l4 4-4-4zm232 6c-2.07-2.81-2.61-2.19-5 0h5zm2917-4l2 4-2-4zm-3145 3l12 13-12-13zm2907 2c.3 2.58.11 2.56-2 4l2-4zm6 1h1l-1 1v-1zm236 0h1l-1 1v-1zm5 2l2 5-5-4 3-1zm-2951 2h1l-1 1v-1zm2 0h1l-1 1v-1zm-568 15c3.47-4.74 13.71-14.51 20-13-8.88 3.03-10.72 10.66-20 13zm39-14h1l-1 1v-1zm3306 0c1.56 4.69-2.35 20.66-5 25 .46-5.61 2.04-20.88 5-25zm-3302 1h1l-1 1v-1zm540 1h-1l1 1v-1zm-537 0h1l-1 1v-1zm531 1h-1l1 1v-1zm-528 0h1l-1 1v-1zm529 1h-1l1 1v-1zm2 1h-1l1 1v-1zm3 2h-1l1 1v-1zm-521 1h1l-1 1v-1zm3226 0h1l-1 1v-1zm539 1h-2v4h2v-4zm-316 0l-5 6 5-6zm-3444 1h1l-1 1v-1zm-412 12l1.59-5.96c3.72-13.38 13.46 5.77 2.39 6.56-1.61.12-2.5-.25-3.98-.6zm415-11h1l-1 1v-1zm3067 0h2l-4 6 2-6zm-3469 2c1.04 3.17.3 3.78-2 6l2-6zm405 0h1l-1 1v-1zm309 0l4 4-4-4zm-711 1h2l-1 5-1-5zm404 0c14.94 13.14 3.51 26.65-3 40-4.39-1.58-13.51-4.57-15.4-9.13-.77-1.84-.6-5.78-.6-7.87 9.3 4.65 6.29 1.07 15 3 3.07-3.51 7.16-2.33 9.5-8 1.01-2.44 1.14-4.22-1.5-5 .43-5.99-1.85-7.8-4-13zm3015 4l8-3-1 5c4.06 4.26-3.03 7.67-7 8v-10zm-3223-2h1l-1 1v-1zm-6 1l5 1-5-1zm16 0h1l-1 1v-1zm119 0c.22 3.96-1.7 4.3-2.61 7.57-1.2 4.33 1.95 1.89-3.39 10.43l2-1c-4.49 8.92-2.81 7.33-1.62 15.99.34 2.43-.79 3.96 1.62 5.01 1.37 4.56 4.22 2.89 8 2 4.12 4.21 10.79 2.11 15-1-.07 1.98.14 4.6-1.6 5.98-1.59 1.25-5.41 1.02-7.4 1.02-5.76.01-10.36.55-14.57-4.3-2.53-2.92-2.36-6.1-2.85-9.7-1.78-12.99 1.19-20.83 7.42-32zm3286 0h1l-1 1v-1zm222 0l-3 4 3-4zm-3645 1h1l-1 1v-1zm3279 3l3-3-3 3zm-3285-1h0zm32 0h1l-1 1v-1zm2 1h1l-1 1v-1zm502 0l5 5-5-5zm-539 1c-.88 3.33-10 13.46-13 16 4.29-7.64 6.91-9.91 13-16zm-185 2h1l-1 1v-1zm3469 0h2c-.97 3.36-.63 4.62-4 6l2-6zm146 0h1l-1 1v-1zm218 0l-3 5 3-5zm-3806 3c3.28-.92 3.94-1.7 7 0h-7zm3431-2h1l-1 1v-1zm156 2h1l-1 1v-1zm60 0c1.82 4.98-2.39 20.45-4 26h-2c-1.3-6.73 4.67-18.62 6-26zm-3307 1h1l-1 1v-1zm-8 1h1l-1 1v-1zm3080 0l5 2-5-2zm-3065 1h1l-1 1v-1zm128 2h-1l1 1v-1zm231-1l5 5-5-5zm-232 2h-1l1 1v-1zm3326-1h1l-1 1v-1zm-3325 2h-1l1 1v-1zm3110-1h1l-1 1v-1zm-3258 1c.83 3.34.01 4.35-2 7l2-7zm31 0h1l-1 1v-1zm3484 4l4-2-4 2zm-258-2h1l-1 1v-1zm262 1l7 8c-4.19-2.21-4.81-3.95-7-8zm-3361 2h-1l1 1v-1zm3098-1l4 3-5 1 1-4zm-3439 1h1l-1 1v-1zm3697 0l-2 3v-1l2-2zm-3699 3h1l-1 1v-1zm76 0h1l-1 1v-1zm106 0h1l-1 1v-1zm148 0h1l-1 1v-1zm244 0l3 3-3-3zm2876 0h1l-1 1v-1zm-3601 1h1l-1 1v-1zm3801 0h1l-1 1v-1zm46 0h1l-1 1v-1zm-3355 2h-1l1 1v-1zm3098-1h1l-1 1v-1zm-3361 1h1l-1 1v-1zm-80 1h1l-1 1v-1zm40 0h1l-1 1v-1zm143 0h1l-1 1v-1zm3467 0h1l-1 1v-1zm-3615 1h1l-1 1v-1zm3405 0h1l-1 1v-1zm272 0h1l-1 1v-1zm-3668 1h1l-1 1v-1zm-46 1c1.59 6.39-7.26 13.14 1.06 17.58l3.94 1.42-1 3c3.89 1.58 9.8 6.44 13.79 4.65 1.42-.63 4.55-4.23 6.21-5.65-1.24 2.58-3.33 7.36-6.21 8.35-4.16 1.43-14.34-6.24-17.94-8.72-1.55-1.06-3.52-2.09-4.19-3.97-1.25-3.5 3.25-12.82 4.34-16.66zm3441 0l7 7-11 4 4-11zm209 0h1l-1 1v-1zm65 0h1l-1 1v-1zm-3680 1l-2 3v-1l2-2zm50 0h1l-1 1v-1zm501 0l5 6-5-6zm2866 0l2 4-2-4zm-3371 2h1l-1 1v-1zm3 0l3 1c-3.03 6.34-8.08 8.84-13.91 12.27-2.23 1.31-4.38 2.9-7.12 2.37-2.99-.58-4.25-2.43-5.97-4.64 6.02 2.87 5.31 1.3 11-.75 7.31-2.63 9.71-2.21 13-10.25zm3564 0h1l-1 1v-1zm-147 1h1l-1 1v-1zm217 1h1l-1 1v-1zm1 2h1l-1 1v-1zm-75 2h1l-1 1v-1zm76 0h1l-1 1v-1zm-3126 1l4 4-4-4zm2904 1h1l-1 1v-1zm145 0h1l-1 1v-1zm-207 1l4 2c-1.72 2.95-1.59 2.97-5 3-.79 4.84-1.41 6.57-5 10v-4c3.42-1.3 5.05-7.65 6-11zm286 0c3.33 2.93 6.62 7.36 6 12l-6-12zm-666 1h1l-1 1v-1zm586 0h1l-1 1v-1zm-3616 1h1l-1 1v-1zm310 0l-2 4 2-4zm263 1h1l-1 1v-1zm-284 1h1l-1 1v-1zm-290 1h1l-1 1v-1zm576 1l9 9-9-9zm-268 1h1l-1 1v-1zm-3 3h2l-3 4 1-4zm-27 3h1l-1 1v-1zm3332 0h1l-1 1v-1zm94 0h1l-1 1v-1zm-3402 2h2l-3 4 1-4zm3165 0h1l-1 1v-1zm238 0h1l-1 1v-1zm-3429 1c.23 3.99-7.2 13.2-9.66 17l-26.93 41c-3.11 4.44-12 15.51-10.29 21 .97 3.14 4.47 5.92 6.88 8 3.13-2 3.64-1.32 7 0 2.3-6.01 16.15-23.72 21-31 2.79-4.19 5.03-9.33 10-11-2.48 5.86-9.18 14.66-13.12 20-9.39 12.77-22.75 28.67-29.88 42h-3l-1-3c-2.46-.12-2.7.05-4.98-1.27-11.7-6.79-2.3-18.49 2.58-26.73l18.38-27 17.69-27 15.33-22zm3128 0c-.06 5.16-4.7 9.83-7.19 14.16l-2.53 4.56-21.53 23.65c-2.39 1.75-3.35.9-6.84 2.96L4871 3352l27.96-22.04L4911 3318v-5l2 2 12-19zm62 1h1l-1 1v-1zm240 0h1l-1 1v-1zm-3119 1h1l-1 1v-1zm3021 0h1l-1 1v-1zm-143 1h1l-1 1v-1zm242 0h1l-1 1v-1zm-3407 1h1l-1 1v-1zm3408 1h1l-1 1v-1zm-102 2h1l-1 1v-1zm103 0h1l-1 1v-1zm-246 1c1.09 3.91-.57 8.25-1.86 12-2.7 7.85-9.29 23.53-15.14 29l4-12h3c-.58-3.42-.94-3.97 2-6-1.09-6.13 5.51-16.77 8-23zm-3665 3h-1l1 1v-1zm3264-1h1l-1 1v-1zm543 0h1l-1 1v-1zm179 0h1l-1 1v-1zm-3490 2c.17 3.06-.47 3.45-3 5l3-5zm3417 0h1l-1 1v-1zm-3112 1l5 5-5-5zm3005 0h1l-1 1v-1zm108 1l1 4-1-4zm-643 1h1l-1 1v-1zm534 1h1l-1 1v-1zm-3736 1h2c12.92 17.6 13.19 18.15 30 32.73 2.18 1.9 8.87 7.84 9.58 10.44.46 1.68-.14 2.39-.58 3.83l-15-15c-.61-2.87-1.22-2.72-4-3-1.49-4.77-3.04-5.84-8-5 3.76 1.36 3.93 1.59 6 5-4.15.6-6.66.84-9.4-3.06-2.68-3.81-.39-7.38-5.6-7.94l1-2-5 3 3-1 2 1-13 10 4-2v8l5 2v-5c4.27.93 4.73 1.27 7 5l-3 5c2.51 3.4 2.63 4.54 7 5v4l12-1-2 10 5-1-1 5 7 6c-12.18-8.45-30.82-25.49-40-37-4.49-5.64-9.94-11.21-8.03-18.91 1.52-6.12 9.29-8.65 14.03-14.09zm420 1h1l-1 1v-1zm-4 10c2.66-4.93 3.78-7.47 9-10-2.39 4.26-4.18 8.38-9 10zm3108-9h-1l1 1v-1zm211 0h1l-1 1v-1zm112 0h1l-1 1v-1zm-4136 3h-1l1 1v-1zm4023-1h1l-1 1v-1zm-4022 3h-1l1 1v-1zm1031-1l7 7-7-7zm-824 1h1l-1 1v-1zm3930 0h1l-1 1v-1zm-4136 2h-1l1 1v-1zm205 0h1l-1 1v-1zm3932 0l1 4-1-4zm-3933 2h1l-1 1v-1zm3815 0v0zm-4017 2h-1l1 1v-1zm1 2h-1l1 1v-1zm4136-1h1l-1 1v-1zm-3936 1l5 12-3 1c5.26 7.55-.79 24.44-6 31l3-11c-4.13-1.66-4.73-2.17-7-6l5-2c-.89-5.37.66-7.19-5-9l8-16zm499 0l-3 4 3-4zm-698 2h-1l1 1v-1zm4136-1h1l-1 1v-1zm-4135 3h-1l1 1v-1zm281 0l-2 3 3 1-1-4zm3855 0h1l-1 1v-1zm-3444 1l2 1v1l-2 1-1-2 1-1zm348 0l3 3-3-3zm2491 1h1l-1 1v-1zm606 0h1l-1 1v-1zm-3860 2h-1l1 1v-1zm3262-1h1l-1 1v-1zm474 0v0zm-492 2h1l-1 1v-1zm617 0h1l-1 1v-1zm-3853 1h1l-1 1v-1zm-2 1h1l-1 1v-1zm762 0c5.46 1.48 9.81 5.41 13.98 9.13 1.7 1.51 4.31 3.6 4.46 6.04.17 2.89-2.61 6.78-4.44 8.83l1-4c-8.3-4.77-.82-14.04-11-15l-4-5zm3094 0h1l-1 1v-1zm-613 1h1l-1 1v-1zm17 11c-.46-2.46-2.49-6.39-1.12-8.3 1.9-2.64 7.26-2.55 10.12-2.27 7.87.77 9.06 2.03 15 3.11l15 2.46 3 6h-4v-3.96h-7c-7.4-.73-12.62-4.02-20 0l14 1.96-1 2 4 1v1l-2 2c7.97 2.25 8.56 3.93 18 3 .09 3.07-.32 3.9 2 6l-4 1 6 5-2 2 18 9c-3.65-.69-17.18-3.25-19.23-5.71-.98-1.17-.59-1.54-.77-2.29l-12.01-6.88-8.99-6.12-2 1v-2l-21-9zm-3253-10l3 5-3-5zm398 1h-1l1 1v-1zm3452-1c2.5 2.84 3.96 5.17 3 9l-3-9zm-611 1l8 5c-3.91-1.53-5.46-1.5-8-5zm-3476 2h-1l1 1v-1zm998 2h1l-1 1v-1zm2809 0c-.07 4.7-3.23 8.24-8 6l8-6zm-3672 1h1l-1 1v-1zm3350 0h1l-1 1v-1zm-3249 2h-1l1 1v-1zm14-1h1l-1 1v-1zm3238 1h1l-1 1v-1zm35 0h3l1 3-4-3zm-3266 2c.76 2.34.83 2.37-1 4l1-4zm3280 0h1l-1 1v-1zm458 0h1l-1 1v-1zm96 0h1l-1 1v-1zm-3084 2h-1l1 1v-1zm-986 1h-1l1 1v-1zm4071 0h1l-1 1v-1zm-291 1h1l-1 1v-1zm292 1h1l-1 1v-1zm-557 2l4-1-3 5-1-4zm-3263 0l11 9-4 1-1-4-6 3v-9zm3428 0h1l-1 1v-1zm91 10c3.24-8.05 1.86-9.11 7-10-1.71 4.41-5.3 11.79-11 10h4zm166-10c1.08 2.26 1.7 4.84 3.43 6.73 5.21 5.7 13.73 5.8 20.57 7.27l-1-3 5 4 1-2h1c-3.58 4.89-10.37 10.65-16 13l-4.48-5.69-8.91-5.37-.61-14.94zm35 0h1l-1 1v-1zm-466 2l-12 3c5.65.96 7.8 1.41 12-3zm567-1h1l-1 1v-1zm-396 1h1l-1 1v-1zm294 1l-1 4 1-4zm103 0h1l-1 1v-1zm-400 1h1l-1 1v-1zm-2 1h1l-1 1v-1zm-2688 1h1l-1 1v-1zm3091 0h1l-1 1v-1zm-556 1l-1 4 1-4zm-2536 1h1l-1 1v-1zm2527 1v0zm459-1c.3 2.58.11 2.56-2 4l2-4zm-3705 1l3 4-3-4zm3402 0h1l-1 1v-1zm410 0h1l-1 1v-1zm-3094 1h1l-1 1v-1zm2682 0h1l-1 1v-1zm413 1.06h6.58l2.6 5.94v18c-8.74-12.89-4.93-11.21-9.18-23.94zm-415-.06l1 1-19 9.3-10.91 4.21-7.09-1.51 2-3h-5l4-4c-1.45.24-2.38.19-3.73 1.02-1.87 1.15-6.36 10.42-12.4 2.75-1.02-1.29-1.28-2.31-1.87-3.77l31.42-3.68L4842 3369zm-2681 1h1l-1 1v-1zm2785 0h2c-1.58 4.69-3.33 6.76-7 10l5-10zm-3498 8c.11-1.38-.02-3.85 1.57-4.52 2.51-1.04 12.42 7.54 14.43 9.52l-6-2 4 6c-4.22-2.1-6.79-6.54-8-11l-6 2zm712-6h1l-1 1v-1zm-861 1l-2 4 2-4zm860 1h1l-1 1v-1zm-703 4h-1l1 1v-1zm3292 3l23-2.87c2.57-.36 6.95-1.94 8 .87l5-1 1 6-12 1h-16c-3.74-.04-5.91.29-9-2l2 1-2-3zm513-2h-1l1 1v-1zm-3105 0h1l-1 1v-1zm-861 2h1l-1 1v-1zm3447 0h5v4h-4l-1-4zm197 0h1l-1 1v-1zm-222 1h1l-1 1v-1zm7 1h14c-4.49 1.09-9.62 1.74-14 0zm-3300 1l6 1v4l12 4.64 7 2.36v1l-2 2 6-2 6 6 2-2h1v7c4.85 1.61 5.99 4.2 7 9l5-3v5l2-4h2l6.62 5.29c4.49 4.57 3.34 9.12 11.38 7.71v1l-2 2 11 7 2-7 4 4 3-4 1 3 1-5 3 1 3-7c-4.05-1.46-4.54-1.95-6-6 5.71 2.11 10.68 5.77 16 8.7l36 19.05 18 8.71 13.68 5.76c1.11.85 1.6 1.51 1.78 2.91.36 2.61-2.36 13.23-4.96 14.76-2.74 1.61-9.64-1.52-12.5-2.57l-32-12.18-20-8.45c-22.53-10.34-50.3-26.89-71-40.69-8.93-5.95-31.02-21.33-37-29zm3911 1h-1l1 1v-1zm-3182 0h1l-1 1v-1zm2852 0h1l-1 1v-1zm-3535 2h1l-1 1v-1zm3462 2c-1.07 4.07-4.69 6.63-8 9l8-9zm-3456 2l5 3-4 2-1-5zm3523 0h1l-1 1v-1zm-2851 3h1l-1 1v-1zm3119 0h1l-1 1v-1zm-3822 2h-1l1 1v-1zm3472 9c-.15-4.87 1.02-6.37 6-6l-15 15 1-3-4 2c-.25 5.03-2.1 6.16-6 9l5-6-9 9-1-7c4.83-3.22 15.21-8.39 18-13l2-1 3 1zm-3429-6h1l-1 1v-1zm657 0h1l-1 1v-1zm3124 0h1l-1 1v-1zm-3987 1h1l-1 1v-1zm3 1h1l-1 1v-1zm859 0h1l-1 1v-1zm2774 1h-1l1 1v-1zm352-1h1l-1 1v-1zm1 2h1l-1 1v-1zm-3775 1l2 4-2-4zm646 0h1l-1 1v-1zm-643 2l12 8-12-1v-7zm642 0h1l-1 1v-1zm3131 0h1l-1 1v-1zm-3792 1h1l-1 1v-1zm3793 1h1l-1 1v-1zm-3134 1h1l-1 1v-1zm3135 1h1l-1 1v-1zm-4001 6c1.86-4.38 4.91-7.01 7-1l-7 1zm4002-3h1l-1 1v-1zm-3763 1h1l-1 1v-1zm-30 1h1l-1 1v-1zm3794 0h1l-1 1v-1zm-4001 2l4-1-3 5-1-4zm230-1h1l-1 1v-1zm630 0h1l-1 1v-1zm-643 1c3.32 4.66 1.75 6.65-3 9-1.03-4.95-.75-5.61 3-9zm3785 0h1l-1 1v-1zm-4007 2l3-1 1 3-4-2zm237 2l6 3c-3.86.31-4.53 1.31-6-3zm625 0h1l-1 1v-1zm-868 16c.09-8.7 1.97-15.31 12-14l-5 4h3c-1.11 2.77-3.53 9.61-5.63 11.38-2.62 2.21-5.8.73-5.37-3.38l1 2zm3620-14h0zm395-1h1l-1 1v-1zm-3149 2h1l-1 1v-1zm3150 0h1l-1 1v-1zm-436 31c1.37-2.07 3.48-4.8 4.4-7 1.28-3.08.62-5.8 3.11-8.61 4.53-5.12 13.37-5.44 19.49-6.98 7.4-1.87 14.19-6.91 22-6.41-4.06 4.91-6.17 5.47-10.99 8.97l-7.18 5.93c-8.22 5.69-21.49 10.16-30.83 14.1zm-2715-29h1l-1 1v-1zm3152 0h1l-1 1v-1zm1 2c5.6 3.47 7.36 7.66 5 14l-5-14zm-3760 2h-1l1 1v-1zm605-1h1l-1 1v-1zm-606 2h-1l1 1v-1zm-5 3h-1l1 1v-1zm1 1h-1l1 1v-1zm-258 12c.78-4.47 1.76-4.21 6-5l1 4-7 1zm4-3h-1l1 1v-1zm3584-1c.81 4.41-3.6 6.24-7 8l1-5 6-3zm441 0h1l-1 1v-1zm1 2h1l-1 1v-1zm-4025 2h1l-1 1v-1zm4026 0h1l-1 1v-1zm-61 5c5.74-2.55 15.49-5.09 21-1.2h-12l-9 1.2zm22-1c4.74 1.13 7.42 2.73 11 6l-11-6zm-3138 1h1l-1 1v-1zm2617 0l4 1-1 2h-1l2 2-5 2c4.86.01 12.06-.89 16 2-7.28 0-15.26 1.12-22-2l-2 2c-1.63-3.77-7.73-2.77-11-2 2.28 6.52 3.79 12.86 11 15l-1-12c2.84 4.02 5.19 5.88 5 11l14 9-2 4c3.29 3.82 9.21 11.16 10 16l5-2-3 3 21.23 36 19.77 32-7-7-5.54-8.3-14.58-17.7-39.76-48-7.2-10.58L4697 3455l18 2 1-4 4 3 10-4zm20 7l41-5.28 19-.72v4l5-3 1 5-5-1c1.28 1.34 2.44 2.8 4.18 3.6 6.51 2.99 21.22-6.77 27.82-5.6-19.37 9.32-25.57 15.49-48 20l-6.52-11.01c-1.07-2.22-1.69-5.62-3.79-7.01-2.43-1.51-6.89-.31-9.69 0-6.28.53-19.74 3.11-25 1.02zm542-7h1l-1 1v-1zm-557 1h2l1 2-1 1-2-3zm492 0c-1.07 4.05-7.66 10.24-11 13l11-13zm66 1h1l-1 1v-1zm-4033 2h1l-1 1v-1zm4034 0h1l-1 1v-1zm-567 3h-1l1 1v-1zm568-1h1l-1 1v-1zm-4037 3h1l-1 1v-1zm-1 2h1l-1 1v-1zm849 1h1l-1 1v-1zm-929 1h1l-1 1v-1zm79 0h1l-1 1v-1zm4011 0h1l-1 1v-1zm-53 3h1l-1 1v-1zm55 1h1l-1 1v-1zm32 0h1l-1 1v-1zm-4119 1h1l-1 1v-1zm72 0h1l-1 1v-1zm4016 1h1l-1 1v-1zm32 0h1l-1 1v-1zm-4122 1h1l-1 1v-1zm73 0h1l-1 1v-1zm4018 1h1l-1 1v-1zm32 0h1l-1 1v-1zm-92 1h1l-1 1v-1zm93 1h1l-1 1v-1zm-32 1h1l-1 1v-1zm-3593 1c4.81 2.17 5.96 4 10 6.37 4.12 2.41 15 6.74 16.19 11.68.49 2.01-.52 4.11-1.19 5.95l16 8c-8.58-.42-10.59-2.95-18-6.13l-15-6.56c-3.02-1.18-6.21-1.67-8.79-3.82-2.36-1.96-3.78-4.84-5.21-7.49l6-8zm3594 2h1l-1 1v-1zm-4024 1h1l-1 1v-1zm848 0h1l-1 1v-1zm3110 1h1l-1 1v-1zm-3959 1h1l-1 1v-1zm3958 1h1l-1 1v-1zm68 0h1l-1 1v-1zm-3584 2h-1l1 1v-1zm3515 0h1l-1 1v-1zm-3526 2h-1l1 1v-1zm3631-1h1l-1 1v-1zm-106 1h1l-1 1v-1zm-3525 2h-1l1 1v-1zm6 0h-4c1.25 3.21 1.74 3.08 5 4l-1-4zm3626-1h1l-1 1v-1zm-3631 2h-1l1 1v-1zm11 0h-1l1 1v-1zm3551 0h1l-1 1v-1zm70 0c3.76 5.82 8.29 28.28 9.59 36 .87 5.19 4.11 14.12-4.59 11l-2.34 5.32c-1.41 5.55-1.55 28.94-6.66 37.68l2.9-17c1.23-10.97-.68-15 0-22v-10.67V3520c-.87-8.4-3.9-20.82-.9-29l1 2 1-3zm-37 1c.84 2.13.91 2.69.98 5.02.12 3.71-.53 15.88-2.72 18.51-2.59 3.12-12.37 5.39-16.21 4.67-4.4-.82-6.94-8.45-8.8-12.2-1.9-3.83-4.42-7.68-3.25-12 1.98 8.31 4.35 10.93 13 10v1l2 1c2.92-4.64 9.11-3.68 14-3l1-13zm-3588 2h-1l1 1v-1zm12 1h-1l1 1v-1zm3503-1h1l-1 1v-1zm-3113 1h1l-1 1v-1zm3112 2h1l-1 1v-1zm-3538 3l-2 3v-1l2-2zm3537 0h1l-1 1v-1zm35 0h1l-1 1v-1zm-3150 2h1l-1 1v-1zm-827 2h1l-1 1v-1zm3941 0h1l-1 1v-1zm-3540 1h1l-1 1v-1zm3574 0h1l-1 1v-1zm-476 1h1l-1 1v-1zm441 2h1l-1 1v-1zm34 0h1l-1 1v-1zm-3511 2l9 5-9-5zm-456 4h1l-1 1v-1zm466 1l8 5-8-5zm3466.14 2l1.86 3 2-3-3.86 9.04v8.96c-2.19-7.23-.3-10.82 0-18zM1269 3519h1l-1 1v-1zm471 0l4 3-4-3zm3489 3h1l-1 1v-1zm-3957 1h1l-1 1v-1zm476 1h1l-1 1v-1zm3482 1c1.25 3.17 1.25 4.83 0 8v-8zm-3956 1h1l-1 1v-1zm476 0l6 4-6-4zm-482 4h1l-1 1v-1zm9 0h1l-1 1v-1zm480 0h1l-1 1v-1zm312 1l-2 6 2-6zm-307 2l6 4-6-4zm3554 4h-1l1 1v-1zm-4034 0h1l-1 1v-1zm490 2c4.84.98 7.54 2.48 11 6l-11-6zm293 0l-3 6 3-6zm-781 1h1l-1 1v-1zm345 1h1l-1 1v-1zm-343 2h1l-1 1v-1zm498 2h1l-1 1v-1zm-496 1h1l-1 1v-1zm773 0h1l-1 1v-1zm3172 1h1l-1 1v-1zm-3947 1l3 4-3-4zm502 0h1l-1 1v-1zm272 0h1l-1 1v-1zm-1 2h1l-1 1v-1zm3142 0l3 6 13 5 1.54-1.46 4.3-1.08L5235 3553l-3 8-2-3v3c-3.94 1.31-11.06 4.13-15 3.83-7.15-.55-12.17-8.61-14-14.83zm-3410 1l5 4-5-4zm-499 1l2 4-2-4zm328 0h1l-1 1v-1zm3353 2c3.05 4.36 3.16 8.07 8 3.98h7l7 1.02c1.96 8.08.21 7.77-.83 15-1.43 9.93-2.42 23.56-8.17 32l-2-14 5-1c-4.2-2.88-4.73-5.31 0-8l-5-6-2 2h-1l-5-3v2l-4-5c-7.62-.16-6.31 1.06-12 6l13-25zm-2917 1h1l-1 1v-1zm3077 3.1c7.69-2.49 19.1-4.39 26 .9l-9-2c-1.98 4.69-4.92 1.7-9 1.1-3.15-.27-4.68.83-8 0zm-3332-.1h1l-1 1v-1zm3330 1h1l-1 1v-1zm-3833 1h1l-1 1v-1zm521 0c5.71 1.62 11.43 4.17 16 8l-11-4c-2.38 6.66-8.85 5.09-13 1l4-2 4-3zm3342 0l6 6-6-6zm-32 1c-1.25 4.73-8.05 10.17-12 13l12-13zm-3312 5h-1l1 1v-1zm233 0h1l-1 1v-1zm-1 2h1l-1 1v-1zm-212 1h1l-1 1v-1zm3 2h1l-1 1v-1zm207 1h1l-1 1v-1zm2744 0l3 4-3-4zm-2943 2h1l-1 1v-1zm-539 1h1l-1 1v-1zm3805 2h1l-1 1v-1zm-3261 2h1l-1 1v-1zm3260 0l1 9h-3l2-1-5 1 5-9zm-3516 1h1l-1 1v-1zm3362 0v4l-9 9 9-13zm218 0h1l-1 1v-1zm-3321 1h1l-1 1v-1zm3451 0l-1 6 1-6zm-315 5l-2-3-2 2 4 1zm-192-3h1l-1 1v-1zm-3207 1c-1.22 3.94-15.84 11.7-20 14 4.8-5.67 13.52-10.27 20-14zm269 0l3 3-3-3zm178 1h2c-2.55 3.81-3.92 4.38-4 9l-6 3 8-12zm-728 1h1l-1 1v-1zm554 1h1l-1 1v-1zm3125 1h-1l1 1v-1zm-187 0h1l-1 1v-1zm303 1h1l-1 1v-1zm-302 1h1l-1 1v-1zm301 1l-5 14-4 10c1.31-9.28 4.26-16.01 9-24zm-299 1h1l-1 1v-1zm338 0h1l-1 1v-1zm-2 1h1l-1 1v-1zm4 2h1l-1 1v-1zm155 0c1.77 3.39.99 5.71-2 8l2-8zm-3422 1h1l-1 1v-1zm2931 1h1l-1 1v-1zm297 0h1l-1 1v-1zm-3782 1h1l-1 1v-1zm3620 0h1l-1 1v-1zm239 0h1l-1 1v-1zm-3156 3c-.66 5.7-11.1 20.21-17 20 3.3-2.48 4.48-2.79 5-7l12-13zm2915 0h1l-1 1v-1zm207 0l2 6-2-6zm-3587 2h1l-1 1v-1zm3378 1h1l-1 1v-1zm247 0l-2.85 10.83 1.85 8.17c-12.39 2.79-16.81 6.47-26.96-4.01-2.23-2.31-3.78-3.76-4.04-6.99 3.08 4.06 13.65 17.22 17 7 5.98-2.83 11.69-9.34 15-15zm111 1h1l-1 1v-1zm-482 1h1l-1 1v-1zm317 0l-1 4 1-4zm-3239 1h1l-1 1v-1zm3089 0h1l-1 1v-1zm299 13.1c.05-4.22.07-7.72 3.34-10.79 2.75-2.57 8.62-2.88 10.46.97 2.02 4.24-5.54 15.95-7.8 19.72-3.81-.33-3.91-.18-6 3-4.26-1.62-4.71-2.72-6-7h-2l-3 2-6 8c2.16-3.76 9.28-14.26 13.04-15.9 1.65-.57 2.38-.23 3.96 0zm8-12.1h-1l1 1v-1zm-472 0h1l-1 1v-1zm334 0h1l-1 1v-1zm145 0h1l-1 1v-1zm-315 1h1l-1 1v-1zm-3084 2h1l-1 1v-1zm3083 0h1l-1 1v-1zm150 0c.74 4.08-1.85 10.48-4 14l4-14zm-3583 2h1l-1 1v-1zm3432 0h1l-1 1v-1zm-3435 2h1l-1 1v-1zm359 1h1l-1 1v-1zm2920 0h1l-1 1v-1zm-3283 2h1l-1 1v-1zm-201 1h1l-1 1v-1zm569 1h1l-1 1v-1zm3184 1l3 1c-2.86 5.13-2 10.26-2 16l3-1 1 6h-3l-1 5-1-27zm-3181 1h1l-1 1v-1zm96 0l-.78 3.9-13.31 9.05-4.91-.95v-2l19-10zm-841 2l-3 5c.04-3.35.29-3.07 3-5zm365 1l4-1v5l-4-4zm395 0c4.66-.59 7.38 1.2 10 5l-10-3v-2zm-6 1l5 1-5-1zm-391 0h1l-1 1v-1zm472 1h-1l1 1v-1zm-63 0h1l-1 1v-1zm2 0c10.81.83 11.63 6.1 14 15l-4.52-7.9-9.48-7.1zm3030 1h1l-1 1v-1zm-3445 1h1l-1 1v-1zm-177 1h1l-1 1v-1zm3484 0h1l-1 1v-1zm86 0h1l-1 1v-1zm207 0h1l-1 1v-1zm-157 1h1l-1 1v-1zm-2984 2h1l-1 1v-1zm-818 1h1l-1 1v-1zm352 0l-1 8-10 2 3 2c-3.64 1.03-5.41 1.42-9 0l17-12zm444 6c4.32-2.64 15.26-6.8 20-5-15.52 2.4-7.98 9.35-20 5zm3004-6h1l-1 1v-1zm-128 2h1l-1 1v-1zm-3484 1h1l-1 1v-1zm3747 0h1l-1 1v-1zm23 0l5.27 5.27L5135 3662l-28 4.34c-3.42-.74-5.94-3.27-7.43-6.34-.96-1.98-1.23-3.87-1.57-6 3.62 2.71 3.21 4.68 4 9l2-2c7.64 8.95 19.82-.53 23.09-1.1 1.96-.33 4.07.53 5.91 1.1l-1.93-10c-2.52-7.76-3.26-1.07-4.07-14zm-161 1h1l-1 1v-1zm295 6l-3 6 5-1-2 7h-2v-3l-4 1c2.47 6.16-.82 6.54-6 8l12-18zm-4073 3h-1l1 1v-1zm3771 0h1l-1 1v-1zm-3458 1h1l-1 1v-1zm3403 4h1l-1 1v-1zm-3412 2h1l-1 1v-1zm-119 1h1l-1 1v-1zm3579 1h1l-1 1v-1zm-3465 1h1l-1 1v-1zm-8 5h1l-1 1v-1zm3381 0h1l-1 1v-1zm36 1h1l-1 1v-1zm-3705 2h-1l1 1v-1zm3667-1c4.1 1.22 4.39 1.64 7 5h-6l-1-5zm-3384 1h1l-1 1v-1zm3420 1h1l-1 1v-1zm352 0l3 1c-.99 4.31-2.36 5.93-7 5l4-6zm-3857 3h1l-1 1v-1zm3503 0h1l-1 1v-1zm50 0h1l-1 1v-1zm-3480 3h1l-1 1v-1zm3405 0h1l-1 1v-1zm23 0h1l-1 1v-1zm-3430 1h1l-1 1v-1zm-68 1h1l-1 1v-1zm3471 1c5.15-1.09 7.76-.62 5 5l-5-5zm377-1h1l-1 1v-1zm-3791 2h0zm3439-1h1l-1 1v-1zm-3450 7c3.66-1.39 7.13-3.93 11-3-6.68 3.44-4.49 2.98-7 9v-6h-4zm3448-4l-5 13h-5l2-5v1l2 2 6-11zm-3489 1h1l-1 1v-1zm3475 0h1l-1 1v-1zm363 2h1l-1 1v-1zm-3842 1h1l-1 1v-1zm43 1l1 1c-4.03 2.98-7.81 5.47-13 4l12-5zm0 10c.62-3.53 1.09-5.17 5-4l-1 2-4 2zm-31-2l5-2c-2.06 2.03-2.09 2.52-5 2zm7 0l11-1c-4.12 1.33-6.78 2.62-11 1zm3817-2h2l-4 4 2-4zm-3790 3h1l-1 1v-1zm3787 2h1l-1 1v-1zm129 0h1l-1 1v-1zm-325 10c3.68-3.92 9.65-7.05 15-5-4.14.69-4.71.96-6 5h-9zm16-6l8 2-8-2zm-123 2h1l-1 1v-1zm132 0h1l-1 1v-1zm166 0l-4 12-7 4 11-16zm-164 1c4.71 1.39 5.92 2.15 9 6l-9-6zm-135 1h1l-1 1v-1zm-1 2h1l-1 1v-1zm107 0l-2 4 2-4zm-108 2h1l-1 1v-1zm148 2l4 4-4-4zm-149 1h1l-1 1v-1zm106 0l-3 7 3-7zm-107 2h1l-1 1v-1zm-1 2h1l-1 1v-1zm-1 2h1l-1 1v-1zm158 0l1 4c3.22.66 3.89 1.31 5.94 4.02 4.17 5.5 2.19 6.83-.55 11.98l-3.39 7 4 1c-8.78 5.44-17.39 7.7-25-1 11.98 5.44 17.68-5.51 25-13-6.39-4.21-6.98-6.76-7-14zm135 2v4l4-1 3 6-8 1 4 1h-4l2 8c-4.3 2.43-5.12 4.07-10 2l-11 8 13-19 4-1h-3l6-9zm-188 1h1l-1 1v-1zm-106 1h1l-1 1v-1zm105 2h1l-1 1v-1zm-106 1h1l-1 1v-1zm105 2l2 8-4 3 2-11zm-104 3h1l-1 1v-1zm292 4h-1l1 1v-1zm-1 1h-1l1 1v-1zm-289 0h1l-1 1v-1zm288 2h-1l1 1v-1zm-286 0c2.05 1.52 2.56 1.42 2 4l-2-4zm285 1h-1l1 1v-1zm-155 1l5 5-5-5zm-33 1h1l-1 1v-1zm52 2h1l-1 1v-1zm-3518 1h1l-1 1v-1zm3372 0h1l-1 1v-1zm-3454 2l4 2-4-2zm3547 0l4 9-4 4v-13zm186 5v0zm-3802 2h-1l1 1v-1zm3796 0l4-1v5l-4-4zm-451 2h1l-1 1v-1zm439 3l6-1-9 6 3-5zm-442 0h1l-1 1v-1zm186 1h1l-1 1v-1zm87 1l1 14c3.68 1.32 4.93 4.05 4.15 7.99-.19 2.05-2.19 3.88 0 5.01-1.11 7.4.35 6.99 3.85 13l2-2h1l10 4c.39-3.34.18-4.04 3-6 .51 5.87 3.43 5.55 7 2-.06 1.84.07 3.97-1.02 5.57-2.4 3.51-12.06 3.5-15.98 3.15-2.53-.23-6.4-.17-8.16-2.12-1.77-1.96-3.49-8.86-4.03-11.6l-1.1-10c-1.49-11.99-1.71-10.3-1.71-23zm-3474 6c2.54-3.15 4.61-2.74 6 1l-6-1zm3203-3h4v4l-4-4zm436 1l-2 3v-1l2-2zm-135 10h1l-1 1v-1zm128 0l-2 3v-1l2-2zm-414 4h-1l1 1v-1zm-7 0l2 1-3 2 1-3zm418 0c-.07 4.37-2.72 6.51-6 9l6-9zm-409 5h-1l1 1v-1zm284-1h1l-1 1v-1zm-281 7h-1l1 1v-1zm399-1c-.69 9.98-8.6 9.13-9 21l-4-1c-3.99 11.09-12.76 17.29-21 25.05-5.33 5.01-10.04 10.68-16 14.95l26.19-27.09L5162 3784zm-117 2v0zm-12 8h1l-1 1v-1zm-77 3h1l-1 1v-1zm199 2h1l-1 1v-1zm-197 1h1l-1 1v-1zm-3652 14h-1l1 1v-1zm-6 0h1l-1 1v-1zm9 1h-1l1 1v-1zm3661 4h1l-1 1v-1zm-3678 1h1l-1 1v-1zm3682 5l4 6c-3.37-1.38-3.03-2.64-4-6zm8 12h1l-1 1v-1zm-5 1h1l-1 1v-1zm265 2h1l-1 1v-1zm5 2h-1l1 1v-1zm-176 2h9l-10 9 1-9zm40 1h1l-1 1v-1zm-123 2c3.39 3.28 3.67 4.35 4 9-6.71-1.07-5.95-3.5-4-9zm248 1c.87 2.73.58 2.95-2 4l2 2v1c-4.1-1.77-1.92-4.07 0-7zm-174 15c-4.96-8.54-.19-9.31 7-10l-7 10zm-69-8h1l-1 1v-1zm106 2l-8.41 13.93H5087l12-13.93zm-104 1h1l-1 1v-1zm238 1h-2l-1 4 3-4zm-135 3l-1 5 1-5zm-100 1h1l-1 1v-1zm1 2h1l-1 1v-1zm3 5h1l-1 1v-1zm-13 1h1l-1 1v-1zm14 1h1l-1 1v-1zm83 3l2 3-3-2 1-1zm-80 2h1l-1 1v-1zm1 2h1l-1 1v-1zm71 0c4.04 3.12 6.73 4.6 7 10-3.96-1.31-4.12-2-5-6l-6 1 4-5zm-68 6h1l-1 1v-1zm62 0l-4 6c4.05.55 8.38.63 11 4-4.74-.15-7.49.58-12 2.09-13.87 4.63-17.11 11.64-26.59 21.62-4.78 5.04-11.94 14.6-19.41 14.29l3-12 4 7c13.45-9.64 22.76-28.8 40-36l4-7zm-61 2h1l-1 1v-1zm0 2l2 3-2-3zm68 0l4 3-4-3zm-67 6l3-2 7.48 18 1.52 9c-3.87-2.17-11.81-13.54-11.65-18 .09-2.35 1.61-4.93 2.65-7h-3zm56 9l3 3-3-3zm-237 2h-1l1 1v-1zm232 0h1l-1 1v-1zm-236 3h3l-1 3-2-3zm188 7l3 4h-4l1-4zm-182 3h-1l1 1v-1zm186 1h1l-1 1v-1zm-2 6l4 1-3 2-1-3zm149 0l2 1-3 5-16 12 17-18zm4 0h1l-1 1v-1zm-136 6h1l-1 1v-1zm105 30h1l-1 1v-1zm-165 32c-4.82-1.79-5.97-4.17-1-7l2 4-3 2h2v1zm1 0l3-1 1 3-4-2zm95 642h-1l1 1v-1zm-939 13c7.64-3.34 18.07-5.66 26.42-5.8 3.82-.07 6.08-.41 8.58 2.8l3-1v7c8.53 0 11.65-.71 20 2l2 7c4.81-2.86 6.54.51 11.09 2.01l14.91 1.92 30 3.34 18 2.41 16-.68 14-1h15l16-1h82l13 1 17 1.04h9l10 1.96h8c17.97 1.89 35.63 6.39 52 14-2.39 4.11-5.16 6.72-2 11l1-6 6-2-2.39 19.77-3.61 4.23 3-1c-1.63 6.65 2.31 21.91 2.7 30 .45 9.26-5.35 36.18-8.65 45l-17.62 34-40.76 64-95.67 144 16-1h52l17 1.06h21l19 1.94h9c19.07 1.39 38.39 3.07 57 7.52l8 2.92c7.14 1.88 14.81-2.86 21.83 0 9.87 4.44 23.99 24.59 31.17 33.56 12.57 15.71 27.07 34.94 35.91 53 3.5 7.14 1.6 6.63 3.12 11l3.48 7 6.55 16c4.27 10.91 11.18 25.59 12.94 37 2 .07 4-.02 5.81 1.02 3.41 1.97 7.21 11.15 8.26 14.98 1.26 4.57 1.64 9.31 2.01 14l.91 9-1.36 28c.21 10.87-3.12 24.39-5.42 35l-2.32 13-4.17 13-2.81 11-14.63 37-19.54 44-6.48 12a1088.059 1088.059 0 0 1-48.21 84l-28.05 44 4 1-9.1 23-1.02 8.55-4.88 1.45-2 6-3 5c-6.6 2.14-5.58 7.76-5 13l-3-1-2 3 1 4-4-1-4.54 5.14L4515 5640l-6 4 1 3c-11.8 6.56-16.06 17.36-30 27.21-10.59 7.49-13.78 2.75-21 7.79-6.49-2.92-22.47 2.12-29.96 3.21l-35.04 3.96-15.99 1.72h-6.29L4362 5692v-8c-2.51-.63-6.14-1.64-8.68-.88-2.64.79-10.45 8.74-11.32-2.12l-4 1 1 2-1 1c-5.73-1.17-5.85-.64-11 2-4.19-2.61-9.99-4.56-14-1-6.01-1.81-8.12-2.69-13 2l-7-2 2 2v1c-4.68 1.22-5.12.7-9-2l1 4c-2.71-1.13-2.45-1.13-3-4h-7l3 6-5-1v5l-10 4c2.59-5.56 4.13-10.9 11-10l1-3-22 2.12-20 3.82h-9l-43 4.89-23 1.26-24 1.91-27 1-15 1h-33l-14.83.89-20.17-.73h-10-9l-39-1.16-12-.96h-11l-13-1.04-26-1-23-1.83-24-1.26-18-1.82-116-9.92-31-2.75-11-1.42c-3.12 2.94-10.73-.58-15.01-.61-11.21-.08-35.58-5.51-46.99-8.51l-31-8.34c-2.37-.91-7.72-3.1-9.17-5.09-2.57-3.56.87-12.31 4.17-14.45-3.16-6.54-12.6-12.61-18-18-10.42-10.42-19.84-22.18-28.62-34l-23.43-36c-15.34-24.19-39.8-67.89-50.35-94l-4.03-12-15.49-50c-.63-3.55-3.06-13.9-1.77-16.81 1.75-3.98 8.85-5.08 12.69-6.19-1.98-2.44-3.31-4.03-4.52-7-3.05-7.47-2.61-25.04-.97-33l3.95-13 4.32-13 14.17-42 13.47-38 11.25-30 11.73-35c1.28-3.2 3.42-10.38 6.73-11.65 3.09-1.19 11.73 2.4 14.87 3.65l8.43-36c9.87-34.63 21.85-68.54 35.12-102l9.88-25c6.15-14.38 13.24-28.5 21.15-42 3.92-6.69 10.72-16.93 13.42-24h6v-5c1.91.61 4.96 1.96 6.91 1.43 2.74-.76 5.23-5.14 6.76-7.43l12.21-17c20.32-26.63 44.72-50.03 71.12-70.58 14.99-11.66 40.15-30.24 56-40.05l8-4.2 9-6.73 47-28.13c53.37-28.93 101.4-48.61 160-64.46l41-9.85 2 5c9.15-2.13 17.4-6.46 26-10.15l29-11.44c11.07-4.31 17.48-8.5 30-5.41l1-6zm34-3h-1l1 1v-1zm912 10h-1l1 1v-1zm-961 2c-3.52-.75-4.01-1.11-7 1l7-1zm960-1h-1l1 1v-1zm-958 2h-1l1 1v-1zm1136 6h1l-1 1v-1zm-866 27c-1.67.78-4.88 2.92-6.45 2.89-2.58-.04-4.59-2.72-6.62-3.18-2.61-.59-5.1 2.67-6.93 4.29l1 3h-4v4l-4-3 2-3 3-2-15.91-2.94L4324 4694l-20 1 3 .96h-10.83c-5.51-.27-13.12-3.17-17.17 2.04-14.38-3.3-20.05.24-34 .89h-22l-28 3.11h-8l-11 1.83c-5.91.47-6.44-1.65-10.09-1.23-6.13.69-9.59 6.39-19.91 5.4l13-6-3-1 9-5c-10.64.01-9.23-.25-17.02 6.54-3.01 2.62-3.81 2.99-5.98 6.46l-16-3 2-5c-9.88-1.55-16.99 4.78-25 9l1-6-7.05 1v3c-1.01 8.32-5.82 3.61-10.95 5l6 7-13 2 1-3-3 3-8 2-2-3 3-6-4-2c-2.27 7.96-7.91 9.99-14 4l-5 2h1l2 2h-5c6.74 2.45 8.15 1.74 15 1-2.87 4.5-4.88 4.55-10 4-2.99 2.28-4.61 2.86-8 1l-7-2c-3.33.93-3.21 1.09-6-1-7.54 1.72-19.55 4.45-24 11-1.3-1.5-2.24-2.42-3 0l-12 7 2-5-4 1 1 5c-7 .63-9.55 2.66-15.72 4l-14.28 2.04c-9.79 2.86-10.27 5.06-15.04 7.17l-7.96 2.65-17.96 6.84c-7.48 3.14-17.47 13.48-26.04 10.3l-25 11.26-20 10.55-8.66 6.65-5.35 1.67-9.99 4.87c.08 4.71-.44 5-4 8l-2-4-2.58 5.83L3792 4836v-3l-16 10.75-8 5.25c-6.22-1.46-13.09 2.52-19 4.92-2.06.84-5.82 2.47-6.93 4.47-1.18 2.15.59 6.93.93 9.61l-3-6c-8.18 2.33-12.39 1.63-17 11l-3-1-1 1 1.89 5c.35 1.94-.02 3.13-1.34 4.61-5.1 5.69-10.8.36-14.51 1.67-3.81 1.34-5.21 6.23-6.04 9.72h-5l3 1c-4.08 6.48-4.96 6.28-7 14h-2l-3-6-1 5-3-3c-.86 2.45-6.26 6.62-8.87 10-6.97 9.05-15.65 20.61-20.13 31h3l-1 3 8-3-8.87 13.86-8.05 7.19L3631 4986l1-3c-6.84 2.13-9.73 11.95-12.75 18l-18.91 35c-2.92 4.57-3.39 7.09-7.34 11l1 5-6-1-1 1c2.75 11.46-4.11 8.01-9.69 20l-17.51 39c-2.62 6.52-5.72 13.01-6.8 20l3-1 1 5-3 5-4-2-1.41 6 1.12 6.59-5.71 4.41 2 2-3 4 4-1c1.29 4.8 5.58 3.37 9 1.55l27-14.97c14.15-8 43.78-21.91 59-26.84 11.97-3.87 13.54-2.53 19-4.1l46-14.01 30-8.2a1816.272 1816.272 0 0 1 228-37.6l31-3.66 86-7.26 15-1.87h9l27-2.13 27-1.91 11-1h9l47-3 31-2 29-1 14-1c9.26-.1 17.03-.3 14-13l-4 3c4.04-7.1 5.99-10.89 15-12l-2 4c3.28-1.84 8.59-7.01 8.76-11 .39-6.96-11.47-11.79 0-16.95 1.03-.49 2.09-1.07 3.32-1 2.12.12 2.89 1.85 7.92 2.95 4.18-7.04 12.11-11.58 12-21l-10 15-8 1 12.63-11.21 1.5-7.73 6.87-7.06 5 4v-4c3.53-2.14 3.52-3.01 3-7 4.26-1.97 5.56-2.37 7-7-4.43-.13-5.56-1.34-9-4l3-2 9 2c.79-.77 1.6-1.32 2.22-2.31 3.88-6.26-8.59-8.29-7.84-13.98.22-1.63 2.57-5.18 3.49-6.71 3.71-6.21 5.18-8.16 8.13-15l6 14-1-16 8 12 1.48-8 3.52-10 4 3c3.3-6.46 6.2-8.41 7-16 5.27-1.37 4.33-6.67 5-11l2 3c6.24-12.98 15.24-25 19-39l-6-4c3.5-2.32 4.32-2.69 4-7l10-1c-3.31-5.4-9.42-5.69 0-12l-2-1 8 1 1-7c4.33-1.15 4.69-5.12 4-9 4.62-1.78 5.95-7.53 7-12h-3c.51-2.31 1.53-4.05-1-5l3-5 1 5 2-6h-2l1-3h-5l5-10 1 9h5c2.08-6.29 3.95-18.36-4-21 .81-5.26 1.07-7.29-4-10l-1 3-1-3-3 1 1.9-8.09c.11-6.07-2.74-5.34 0-12.91-4.91-5.12-8.97-6.55-15.9-8.24-4.39-1.06-7.74.82-9-2.76l-20-3-1 3c-5.17-1.89-6.43-3.99-12-3l-1-4h-1l-2 2-5-6 3 7-9-3 1-4zm131 2l-4 4 1 1h2l1-5zm-342 2h-7c2.38 3.07 4.13 1.9 7 0zm9 2h-1l1 1v-1zm95-1h1l-1 1v-1zm2 1h1l-1 1v-1zm110 2l1 6-4-1 3-5zm0 3h-1l1 1v-1zm5 0l3 4c-3.35 1.79-4.53 3.04-8 1l5-5zm-311 5c-7.75 1.31-6.34 3.27-8 10 3.71-2.26 6.56-5.92 8-10zm-2606 0h1l-1 1v-1zm2640 5c2.8-4.34 7.21-4.9 12-4v2l-12 2zm-49 0h-1l1 1v-1zm36 0l6 2-4 1-2-3zm292 1h1l-1 1v-1zm-358 7h-1l1 1v-1zm9-1h1l-1 1v-1zm404 0l2 4-2-4zm-412 2h-1l1 1v-1zm1 1h-1l1 1v-1zm-1843 5c-4.88 1.5-5.45 3.6-8.44 4.02-4.42.62-8-2.97-17.56-2.98h-13l-9 .95c-2.79.07-16.06.87-17.96 1.61-4.93 1.9-7.5 9-12.14 12.39-8.22 5.98-23.26 5.2-17.9 18.01l-7-5 3 11 5 1-1 9 5 14 8.95 24 3.99 13.96L2116 4842l3.76 7.01 9.17 1.99c-.26 2.86-1.22 10.73 0 13 2.38 4.8 8.38 7.03 10.99 11.1l8.29 19.62 11.72 31.23c3.02 6.07 6.86 3.45 6.24 10.07-.73 7.8 2.39 12.87 5.23 19.98l13.6 32 3-1c2.15 7.77.38 6.9 1.08 11 .68 3.99 5.14 13.09 7.92 16v-4c2.98 5.11 1.03 4.3 2.03 9l2.97 8 16.18 33c3.9 7.84 3.57 13.95 11.82 19h-2v1l6-1-2 9c5.12-2.77 7.84-3.93 9 3l6.04.96 16.96-.96h21l16-1h74l15 1h17l12 .97h17l8 .99h12l21 1.04 18 1.91 28 2.13h9l65 6.79 127 14.89c56.17 7.39 112.23 15.65 168 25.7l82 15.58 26 5.65 15 3.35c-2.35-15.23-7.89-16.54-14-28l3-1-7-17-6 2-1-1v-8c2.6-2.6 1.08-4.27-2-5 .78-4.42.09-5.13-2-9l-5 1v4l-3-4 6-4-9-13-1 5c3.22 3.4 3.23 3.9 1 8l-7-12c3.43-4.13 5.4-8.86-1-11l-3 5-4-7 3 1v-2l4 1-2-6c-4.23 1.16-4.78 1.37-8.77 0v-1.37L2949 5057l4 4c6.11-4.13-1.57-9.24-4.11-13.09l-3.36-5.91-8.53-12c-1.43-2-3.89-5.85-6.17-6.77-1.96-.79-5.67.39-7.83.77l6-4-9.87-14-5.43-5.93h-3.7c-.37-4.22.08-4.93-3-8.07l-5 4-9-10h3v-4l4 2c-2.11-7.76-11.8-17.53-17-24l-31.84-38c-4.74-5.31-9.46-11.83-15.16-16l-6 5-2-2-6 3c2.36-2.9 3.24-4.26 7-5l5-3v-2l-5-3c-3.51 5.34-4.04 5.33-10 7v-2h3v-5l-8 5 4-4v-4l-3-4 5-1c-2.61-3.75-4.4-1.91-11-2l-1-6 4 2c-1.63-4.64-2.53-5.14-7-7-.37-7.27-7.02-10.47-13-13 2.23-2.66-2.94 1.78-7-3l4-2-7 1-4-5 6 1c-2.95-5.72-9.86-10.31-15-14.13-3.23-2.39-5.08-4.88-9-2.87-.5-9.47-9.53-7.43-13.08-9.41-4.71-2.64-5.58-5.26-10.92-7.59l1-3-6-1c-2.11-6.24-14.18-11.15-20-14.03-2.26-1.12-5.47-2.53-8-2.58-4.36-.09-4.72 2.16-12 1.61l-.81 1.64-9.17 6.62-3.02-1.26-3 1 8 9c-9.97-5.74-36.44-18.56-47-22.53-7.75-2.92-9.56.76-12.57-.7-3.1-1.5-1.17-5.12-8.43-8.53l-9-3.66c-5.16-2.17-12.1-6.37-17-1.58l-2-2h-1l-7 3-5-8-1 9-6-5 7-8-5-1-3 4-1-5-11-4v1l2 2c-8.12-4.61-17.14-11.17-27-9-2.48-3.02-15.78-6.09-20-6.73-2.71-.4-4.84-1.08-7 .73-8.82-5.4-15.43-.98-14 5l2-4v1h2c-1.25 1.56-2 2.92-4.04 3.65-2.48.89-12.03-1.55-14.96-2.28-6.52-1.62-25.27-6.8-31-6.11-2.41.29-5.57 1.87-8 2.74l1-5-30-5.58-52-7.58c-8.84-.95-23.92-4.13-32-1.84-3.24-3.63-11.37-2.73-16-3.28l-21-1.43h-6l-7-1.19h-9c-5.43-.17-9.49-2.3-14 .9-2.89-2.13-5.38-2.92-8 0-4.59-1.91-9.24-2.89-14-1l7 6-9.17-6.41-11.83-.59v5h-4l4 3c-7.41-1.94-5.36-3.71-14-3l3-5zm7 0h-1l1 1v-1zm28 3h1l-1 1v-1zm-20 1l7 5c-4.87.6-5.92-.27-7-5zm1797 0h1l-1 1v-1zm-1696 2c1.39 2.42 1.26 2.41-1 4l1-4zm-103 2h1l-1 1v-1zm-759 7h-1l1 1v-1zm3009 17h-1l1 1v-1zm-1963 2h3l-1 3-2-3zm-1052 2h-1l1 1v-1zm1083 0h1l-1 1v-1zm2 0c5.94.5 9.91-1.6 11 6l-5 1-6-7zm1932 1h-1l1 1v-1zm-1939 1l5 2-5-2zm32 7l5-1v6l-4 1-1-6zm34 7h-1l1 1v-1zm-5 1h-1l1 1v-1zm5 10c2.22-3.9 2.74-4.51 7-6-1.41 4.24-2.8 4.84-7 6zm-7-4h2l1 2-1 1-2-3zm18 3h2l1 1v2l-3 1v-4zm11 2l3 4h-4l1-4zm-5 1h1l-1 1v-1zm-8 2l3 1-3 4v-5zm-922 16h-1l1 1v-1zm1008 3h1l-1 1v-1zm1133 2h-1l1 1v-1zm-1082 5h-1l1 1v-1zm2 1c.03 2.9 1.33 3.29 4 3l-4-3zm1067 0h-1l1 1v-1zm-1078 9c2.7-5.72 6.1-5.59 9 0h-9zm-5-1l3-2-3 2zm75-1h-1l1 1v-1zm-1 1h-1l1 1v-1zm-10 1h-2l-3 2 5 2v-4zm9 1h-1l1 1v-1zm1634 0h1l-1 1v-1zm-1705 7c-.21-3.81 1.24-5.23 5-4l-5 4zm7 1c-.76-5.71 3.28-5.14 8-6v4l-7-1 2 3h-3zm1691-4l9-2c-.25 5.02-.31 7.42-5 10l1 2-1 1h-2c-1.69-4.57-3.06-6.07-2-11zm-1707 0l4 2-1 4c-2.92-2.19-2.71-2.41-3-6zm71 2h-1l1 1v-1zm2116 4h-1l1 1v-1zm-2787 2h-1l1 1v-1zm677 8h-1l1 1v-1zm-5 9h-1l1 1v-1zm-15 10c1.4-4.41 3.92-6.91 8-9-1.08 5.92-1.64 8.47-8 9zm951 0l3 5-5-1 2-4zm-24 18h1l-1 1v-1zm14 3c.87 2.73.58 2.95-2 4l2-4zm-25 4h-1l1 1v-1zm699-1h3v4l-3-4zm-1565 7h-1l1 1v-1zm860 0h-1l1 1v-1zm6 0h-1l1 1v-1zm692 9h-1l1 1v-1zm-1563 0h1l-1 1v-1zm1566 4h-1l1 1v-1zm3 0h-1l1 1v-1zm-1553 2l3 3-3-3zm8 0h1l-1 1v-1zm1537 1h-1l1 1v-1zm-1547 0h1l-1 1v-1zm1548 1l2 3v-1l-2-2zm8 0h-1l1 1v-1zm-1543 4h1l-1 1v-1zm823 5l5 4-7-1 2-3zm697 1l4 1 3 5-4-3v3l-4 1 1-7zm1081 0h1l-1 1v-1zm-1072 12c-1.59-2.26-1.58-2.39-4-1l4 1zm-721 1h1l-1 1v-1zm1575 8l-2 3v-1l2-2zm-1570 1h1l-1 1v-1zm690 4h1l-1 1v-1zm915 3h-1l1 1v-1zm-1 1h-1l1 1v-1zm-904 2h-1l1 1v-1zm1 1h-1l1 1v-1zm901 0h-1l1 1v-1zm-37 1h-1l1 1v-1zm36 0h-1l1 1v-1zm-1628 19h-1l1 1v-1zm688 21c-5.65-3.32-1.56-6.12.93-5.68 2.47.44 3.83 2.78 5.07 4.68l-7-2 1 3zm-1413 1c3.61.22 5.5-.55 7 3-3.79-.44-4.19-.24-7-3zm1416 9c-5.08.66-6.23 1.03-8 6 4.77-1.59 5.13-1.8 8-6zm-1388 19h1l-1 1v-1zm38 14h1l-1 1v-1zm11 20c2.03 2.06 2.52 2.09 2 5l-2-5zm-12 22l-2 3 2-3zm23 1h1l-1 1v-1zm1415 16h-64l-15 1h-15c-3.78.01-10.64.16-13.91 2.01-2.21 1.25-12.61 14.32-14.14 16.99-1.65 2.86-1.17 3.98-3.37 7.25l-39.16 47.75-34.28 38.98c-2.29 2.55-10.55 10.69-10.09 13.74.22 1.48 2.82 3.25 3.95 4.28l-3-1c1.98 6.6 5.1 4.42 10 2-4.16 8.98.25 9.2-1.95 14.17-3.5 7.9-11.93 17.32-19.05 22.2l-5.72 3.44c-3.04 2.25-4.92 5.33-10.28 8.58-7.2 4.37-25.79 12.45-34 15.15-5.05 1.66-14.73 3.84-19 6.38-4.11 2.45-12.07 11.98-15 16.08l-5-3 1 4-2-2 1 5c-3.9-2.94-15.3-10.94-20-10.29-4.21.59-8.18 6.18-10.75 9.29l-21.05 26-44.62 55-55.5 65-21.41 25-8.39 12c-3.1 4.39-8.76 8.31-8.28 14-4.78.86-22.12 5.61-17-5l-6-3 1 2h-2l1-3-12-3 1-3-8-2c-1.46-5.24-4.17-6.8 2-10l-1-4 4-1c.23-4.12 2.94-8.81 7-10l5-13 3 2 2-2v-3l-2 1c2.71-7.35 20.36-34.04 25.67-42l41.05-61 21.28-29-89 11.72-83 8.45c-32.6 3.16-65.24 6.51-98 7.11l-10 .72h-19c-10.64.02-7.39 2.15-21 .83l-61-12.25-29-5.13c-3.31-.66-9.06-.9-11.16-3.76-2.36-3.23-2.21-14.64-1.52-18.69l1.27-6c.19-2.15-.23-3.91-.59-6h-5c-1.54 6.75-7.25 22.5-10.16 28.83l-6.95 13.17-5.18 12c-2.41 4.72-4.72 8.7-7.83 13-2.02 2.79-5.13 6.4-5.09 10 .04 2.94 2.99 9.01 4.15 12l10.37 26 4.56 13 26.71 50c9.61 16.57 29.88 48.66 41.51 63 6 7.38 13.69 16.65 20.91 22.7 7.03 5.89 8.76 2.32 12 8.3 6.88.93 10.13.78 14 7l5-2c-2.89 13.07 4.76 15.09 16 17.45l10 2.37 23 2.09 10 .51 25 1.67 70 5 20 1.82 37 2.18 8 .93h10l10 .98 24 1 17 1.04h11l11 .96h20l17 1h67l17-1c46.49-.07 111.51-5.49 158-11.28 50.06-6.24 99.75-15.27 149-26.14l59-14.58-1-3h11c.75-7.07 2.18-6.11 3.51-11 1-3.7-.24-6.27 2.72-9.63 2.44-2.79 7.57-4.15 10.73-6.25 2.91-1.93 4.59-4.35 6.62-7.12l47-71c27.45-43.85 53.17-88.87 72.42-137 5.5-13.76 10.28-27.62 13.87-42 .99-3.96 4.02-16.52 3.99-19.99-.05-4.23-3.15-7.03-4.25-11.01l-1.85-11-6.09-19c-7.38-22.15-14.61-45.25-25.49-66l-7.43-11-15.75-26.81c-13.36 2.24-9.97.79-22 0l-8 .73-8-.78c-7.44-.33-13.11-.1-19.44-5.01-5.31-4.13-6.95-8.58-10.66-10.28-3.21-1.47-11.23-1.84-14.9-1.85l-19-1h-19c-4.81 0-12.74-.69-17 1l5.45 3.77 7.55 3.7 22.58 15.36c3.49 2.4 10.53 5.56 11.04 10.26.54 4.98-6.4 11.05-9.08 15.92-7.94 14.45-6.95 9.59-15.11 20.99l-19.43 29-35.02 53-62.4 86-23.84 33c-4.76 6.98-10.17 15.87-15.74 22l-5-4c.32 5.46 1.69 6.99-1 12-2.11-2.93-4.46-6.11-8-7.4-2.68-.98-4.45.08-7.28-1.34-2.04-1.03-5.63-4.34-10.72-6.77-3.82-1.82-10.34-2.73-11.16-7.53-1.19-7.02 6.55-16.49 10.46-21.96 10.83-15.2 21.38-30.65 30.43-47l33.41-58 16.72-31c17.62-31.33 41.88-70.77 62.56-100l6.76-9 10.82-12zm-1405 1h1l-1 1v-1zm1243 3l-11.39 1.99-7.72 12.01-15.52 21-24.6 33-11.9 14.09-29.74 38.91-23.57 31-1.56 7-3-2-17 22c-1.68 2.13-7.17 8.89-7.91 11-1.9 5.45 4.15 10.93 8.91 12 .15-5.08 1.75-6.51 6-9 2.3 4.37 4.91 5.49 9 8l-4-11 5 1 2 5c5.14-2.66 6.5-6.01 9-11h-1l-2-2 5 2c2.51-3.76 3.42-4.38 3-9 5.95-.37 7.09-4.89 8-10l2 2c3.54-5.6 13.39-16.54 12.69-23-.27-2.44-1.61-4.84-2.69-7 4.71.24 5.15 1.55 8 5v-7l1-1c3.82.5 3.92.2 6-3l-7-6c3.83-1.34 3.67-2.09 4-6l8 3-5-5 4-2 2 6c2.65-1.84 2.42-1.84 2-5 5.49-1.92 5.17-3.21 8.31-7.58 2.05-2.84 5.74-7.16 6.76-10.42l.93-15c5.52 2.13 4.03-.99 9-4l-.91-6-2.21-8 4.84-7 9.93-13 33.35-46zm-99 6l-56 4.09-21 1.87-22 1.76c-3.37.42-5.65-.02-8.24 2.59l-8.95 13.69-14.23 21-19.73 28-22.81 31-19.37 30c-8.89 13.34-9.87 16.85-16.98 30-2.08 3.85-7.92 11.97 1.31 10.94 2.6-.29 14.73-2.57 16.23-4.03 1.01-.97.58-1.25.77-1.91 2.54.45 5.94 1.91 7-1 7.77 1.85 16.27-2.26 23.58-4.56l13.42-2.73 10.04-4.19c5.61-1.43 9.14 3.7 12.96-.52 4.9-1.01 7.63-6.22 10.58-10l22.3-29 58.24-75 32.88-42zm-196 17l-57 7.28c-60.48 8.15-127.42 21.17-186 38.01l-37 11.17-16 7.85c-13.9 5.06-32.5 9.97-45 17.69-1.41 6.08-12.25 14.22-16.91 19.04-8.41 8.67-19.38 24.12-24.84 34.96l-11 23.98c-.78 4.22 4.04 7.8 6.75 4.02 2.71 5.81 7.39 10.53 8 17l16 4.83 27 2.95h9l7-1.62 10-2.16c3.86 3.37 12.2 2.25 17 1 .18.66-.21 1.1.77 2 1.78 1.63 13.29 1.93 16.23 2.28l41 4.72c6.27-.04 6.38-.44 12-3 4.08 4.82 11.43 3.39 17 3.08 3.69-.21 6.23.09 9.96-1.02l7.13-2.71h6.91l12-1.62c7.55-1.11 12.12-3.84 18 2.27l20-6.51 21-10.7 12 1.16 39-7.95v-4c4.7 3.07 4.47 2.94 10 2l-2-4 5 1c1.04 2.78 4.57 1.32 7 .77 6.03-1.39 12.75-3.95 19-3.77.88-6.81 1.42-11.85-4-17l-1 7-4-4-13 1v-3c-5.74 1.54-7.83 3.3-11-3-5.76.67-9.06-3.36-7.65-9l11.89-25 19.62-48 12.51-28 17.63-31zm-937 1h1l-1 1v-1zm-18 6h1l-1 1v-1zm-244 57l-57-7.16-90-10.01-112-9.92-44-2.91-17-1-20-1h-16l-17-1h-98c2.66 3.91 4.95 3.69 5 9l-2-3v8c4.53-2.21 5.14-3.42 7-8h2c6.22 11.2 15.83 20.35 24.91 29.17l13.09 13.66c5.95 5.38 15.48 12.15 20 18.17l-5 4c3.44 11.52 7.81 3.47 10 15l6-1-2 4 2 1v1l9-3 1 9 6-2v7c4.92 3.81 4.71 3.92 11 4 1.19 5.59 3.22 7.11 8 10l3-4c-.95 5.67.83 5.88 6 7l-2-3 5 3-3 1c4.69 4.54 6.88 1.79 11-2l4 4 1 7 32 14.95c5.47 2.05 9.13 4.43 15 3.05.64 2.41 3.73 5.2 5 2l3 1-2 2c5.97.5 7.54-3.24 10.22-8l12.11-19c14.69-22.04 29.58-44.44 46.28-65 3.78-4.65 9.03-11.5 13.43-15.24 1.46-1.25 3.85-3.38 5.86-3.43 2.16-.06 3.73 2.41 6.31 3.94 8.41 5 14.47 9.31 19.79 17.73l7 3h-1l-1 2 2 3 9 2-18.26 27-33.08 49-14.66 21 29 4.08 16 3.49 11-1.57h19c.99 2.87 3.52 6.25 6.32 7.63L2646 5350v-5c2.51-.01 5.66.2 7.91-1.02 2.77-1.51 6.46-7.25 8.37-9.98l15.14-22 47.04-69 5.28-9c5.8-8.7 22.01-29.64 25.26-38zm-465-32l3 4-3-4zm39 116l-30.91-26-22.66-24.04-26.69-32.96-15.03-20-8.03-9.99H2205l-10 .9-27 2-56 5.53-16 4.04-38 4.52-4.51 11c-6.04 21.12-14.47 68.03-16.32 90l1.96 24c.35 5.54.92 8.77-4.13 12l15.75 31 17.97 41 4.94 12.72c1.23 3.84.5 3.87 2.77 9.28l22.31 46c13.47 26.09 25.9 49.15 47.26 69.99 16.8 16.39 38.19 25.97 61 30.56l23 3.36c5.76.4 10.36-.54 15.29 3.55 4.81 4 1.71 6.63 1.53 10.45v5.09c13.56 6.22 55.04 15.84 71.18 19.42l61 12.97 67 11.03c35.5 5.52 71.26 9.99 107 13.41l32 2.34 40 2.83 31 2 96 1 22-1h19l19-1 16-1 36-2.83 19-1.34 74-9.26 51-9.18 17-3.39c-4.11-7.68.33-10.14 3.43-17l17.32-38 12.56-26 10.38-21 5.32-14 15.68-33 12.36-31 5.59-15 3.69-13c1.07-3.29 3.71-10.82 3.08-14-.91-4.66-6.28-8.44-9.41-12 5.05-6.86-1.64-16.89-5.42-23l-23.16-37c-3.6-5.78-11.26-18.54-15.42-23-1.31 2.42-2.21 4.13-4.47 5.86-4.9 3.76-21.85 5.72-28.53 8-5.97 2.04-12.55 2.59-11 10.14h7c-5.73 6.24-5.04 6.27-3.38 14 .49 2.28.61 4.68 1.55 6.83 1.23 2.82 1.77 2.55 2.83 6.17-3.63-.44-4.6-.56-6 3l-20.95.82c-3.45-.46-3.73-1.78-4.05-4.82l-5-1c-1.4 2.55-2.33 4.38-5.04 5.83-2.57 1.36-6.07 1.11-8.96 1.45l-24 2.14-31 1.58-57 5.72-18 1.91c-5.52.28-5.33-1.57-11 1.37l2-3-7.05 3.03c-3 .74-7.86.54-10.05 2.54-1.81 1.66-6.79 10.76-8.32 13.43l-17.38 30-7.98 12.64c-4.62 4.43-17.5-3.84-21.02-2.4-1.61.66-2.67 2.39-3.58 3.78l-12.04 19.98-17.3 25c-4.77 6.26-9.83 14.68-18.28 16l1 3c-6.54 1.35-14.71 1.12-21-1-3.66 4.27-4.98 4.26-10 2l7-1c-4.23-3.3-6.44-4.67-8-10h-11l3 5c-2.98-1.7-14.49-7.07-14.44-10.3.05-2.78 4.66-7.5 6.44-9.7l-11-8-16.79 22-20.49 26-19.28 22-21.71 26-9.72 11.04L2552 5590l-12-11-8-4.92-6.23-2.67-1.38-7.11-4.39-4.3-2 1c-1.82-7.89 2.42-12.29 6.14-19l16.44-31 9.48-17 10.16-15.42 4.13-7.58 33.07-47 32.58-46-31-2h-8l-33-3.85c-11.35-1.35-28.81-2.76-39-7.15l-37.37 51c-4.36 5.81-10.72 16.87-17.63 19l-2 4c-2.02 7.99-7.35 4.26-11.61 7.02-2.15 1.4-2.71 3.7-3.39 5.98l6-1-2 6-5-1-2-2 2 4h-6l-1 3c-4.99-6.48-2.46-5.72-4-13l-6 1 4-5-10 2c1.29-3.32 1.9-3.88 0-7l2-3-6-5 1 3-6 4 1.5-6.92c2.51-8.27 7.09-15.73 11.5-23.08l1 5c5.29-3.97 1.35-5.91 2.59-11 .52-2.12 4.02-7.85 5.31-10l24.53-42c3.27-5.71 8.37-12.26 10.57-18l-4-1c-.82 5.05-1.83 6.4-7 7l5-8-4-1-2 7h-2l-2-10-14-5.95-9-2.93-32-15.29-20-8.93-5 1.1c-3.24-6.92-5.45-6.82-12-10.14-11.67-5.93-11.07-6.51-24-8.86l-2 6-8-1zm687-110h-1l1 1v-1zm-731 1h-1l1 1v-1zm1911 8l5 3c-3.54.47-3.8.39-5-3zm9 5h-1l1 1v-1zm-16 8l1 5-1-5zm-1171 126c3.12-3.29 11.47-6.22 16-7.25 6.26-1.42 10.21.27 14.53-7.77 1.39-2.57 3.66-12.11 3.18-14.98-.7-4.24-12.26-21.72-15.29-27l-8.76-15-4.87-9c-1.25-1.92-4.4-6.87-6.17-7.98-2.26-1.41-6.84-.92-9.62-1.19l-23-2.11-21-2-34-4.57-30-4.15-2.8 10.72-2.97 6.29-20.2 46.99-21.48 39-12.55 22c4.56 0 10.92.95 14-3h2c.87.97.75 1.31 2.29 1.69l15.71-.69 10-.91 22-1.81c8.52-1 8.89.65 18-3.28l-1 2 7-5-3 1v3c6.4-.02 13.05-.52 19-3l-1-5c11.77-2.07 9.21 1.92 17 2.75 4.54.48 9.07-1.78 13-3.75l-4-4c3.86 1.11 6.18 2.55 9-1l10 1-1-3 3 1-3-5 5-2 3 2c1.22 8.3 7.56 7.22 14 8 3.05-3.35 3.6-3.21 8-3zm-1303-87h-1l1 1v-1zm2443 8l5 7c-3.73-2.27-4.07-2.73-5-7zm-7 2c2.45 3.12 2.99 3.99 3 8-2.91-3.13-3.39-3.7-3-8zm-14 10c.76 2.34.83 2.37-1 4l1-4zm2 5h2v1l-2 2 2 1v1l-4-1 2-4zm4 1v0zm-15 2c5.04 2 5.24 6.03 6 11-3.52-2.37-4.7-7.09-6-11zm-2247 4h-1l1 1v-1zm2431 0h-1l1 1v-1zm3 1h-1l1 1v-1zm506-1h1l-1 1v-1zm-699 2h-1l1 1v-1zm-1795 4l-5-1 5 7v-6zm1818 0h1l-1 1v-1zm-1751 1h1l-1 1v-1zm41 3l11 5 1 6c-5.33-2.17-10.39-5.24-12-11zm6 4h-1l1 1v-1zm1698-1c1.69 3.36 1.41 4.19-1 7l1-7zm6 1h-1l1 1v-1zm-1799 1l5 2-5-2zm1775 0h1l-1 1v-1zm-159 4h1l-1 1v-1zm171 0l1 4-1-4zm-1779 1c3.87.55 5.73.53 8 4-4.22-.2-5.03-1.12-8-4zm67 3h-1l1 1v-1zm8 1l4 3-4-3zm6 2l4-1c-1.63 1.83-1.66 1.76-4 1zm1685 1h2l-1 4-1-4zm-1670 5c.03-3.12.06-2.94 3-4l-3 4zm1114-1h1l-1 1v-1zm559 1l2-1 1 3-3-2zm-564 2c-1.7 2.42-1.8 2.82 1 4l-1-4zm539 1c2.87.55 2.87.29 4 3l-4-3zm7 3c1.63-1.83 1.66-1.76 4-1l-4 1zm-220-1h1l-1 1v-1zm-1411 8h6l-4 3-2-3zm512 2h1l-1 1v-1zm1117 10h-1l1 1v-1zm-1123 1h-1l1 1v-1zm-47 6h1l-1 1v-1zm-487 1l3 3-3-3zm190 17h1l-1 1v-1zm2 0l4 1-4-1zm1624 6l-3 4 4-1-1-3zm-1332 10h-1l1 1v-1zm524 7h-1l1 1v-1zm837 12h-1l1 1v-1zm-53 0h1l-1 1v-1zm43 21h1l-1 1v-1zm-2408 4l-1 1 4 2-5 1 12.96 13 12.21 13.83 28.83 23.97c38.02 30.57 62.81 47.08 105 71.2 5.12 2.93 13.46 7.17 17.83 10.76l8.17 7.62 8.52 6.42c5.54 4.5 6.54 11.11 14.31 7.2-.93 2.47-1.67 3.32 0 6 1.57 3.15 6.25 6.41 9 8.74 3.4 2.89 10 9.86 14.17 11.01 1.99.55 8.73-1.16 11-1.75l-3-3 4 2c-1.29-4.74-3.63-9.66-9-10-2.24-6.57-9.66-15.13-17-15-.46-4.02-1.34-6.96-5.04-9.25-2.17-1.34-4.47-1.07-6.12-2.81-2.91-3.08-.29-5.88-6.84-5.94l-7.29-10.05-7.28-10.95-28.18-55-9.67-21-5.23-10.1-12.35-2.62-30-4.36-57-11.65-26-7.78-14-4.49zm2787 9h-1l1 1v-1zm-2203 19h-1l1 1v-1zm5 0h-1l1 1v-1zm-36 2h-1l1 1v-1zm32 1h-1l1 1v-1zm-31 3h-1l1 1v-1zm4 0h-1l1 1v-1zm-15 0h1l-1 1v-1zm14 1l-4 2 4-2zm-19 0l4 1 1 4-4 2v-1l2-2-4 2 1-6zm-2 1h1l-1 1v-1zm7 1h1l-1 1v-1zm2 0l4 1v1l-2 1-2-3zm19 4c-.76 2.34-.83 2.37 1 4l-1-4zm-4 1h-1l1 1v-1zm13 0l-3 3 2-1 1 3v-5zm9-1h2l-3 5 1-5zm-16 4h-1l1 1v-1zm-17 0h6l-3 5c4.16-.73 6.38-1.9 9 2l-3 1h-9l-2-4 3 1-1-5zm18 1h-1l1 1v-1zm-8 0h1l-1 1v-1zm-7 2h-1l1 1v-1zm4-1h1l-1 1v-1zm10 3h-1l1 1v-1zm-2 1h-1l1 1v-1zm3 1h-1l1 1v-1zm-8 1h1l-1 1v-1zm7 1h-1l1 1v-1zm-18 0l3 3-3-3zm-2 1h1l-1 1v-1zm15 10h1l-1 1v-1zm241 6v0zm6 2l-3 3 7 2-4-5zm-3 15l3 3-3-3zm1206 3h-1l1 1v-1zm-699 19l5.1-.95h12.9l21 1.91h13l10-.96h13l27-1.91 22-1.26 34-3.06h49l18.96 3.54c3.02.76 3.85 2.26 6.21 3.11 2.33.84 7.19.55 9.83.58l24 1.96c3.1.14 7.82-.52 10.21 1.78 1.05 1 1.85 2.95 2.44 4.28 4.23 9.54 1.36 14.22 1.35 23.98 0 2.65-.33 7.56 1.02 9.77 2.02 3.32 11.17 4.94 14.98 6.23l-12.95 22-13.79 21-21.05 27-48.58 67-17.91 23-16.72 20h-2c-3.47-6.2-9.38-11.67-9-19l-4 2-11.04-11.87-7.96-6.26-17.71-18.87c-26.03-29.67-48.04-62.89-66.03-98-6.79-13.25-11.34-26.92-15.93-41-2.85-8.74-2.55-13.9-12.33-16v-4l-13.49-2.77L3185 5515zm721-3h-1l1 1v-1zm-15 2h-1l1 1v-1zm12 0c-1.99 3.17.13 3.71 3 3l-3-3zm3 0h-1l1 1v-1zm-9 2l1 4 3-1-4-3zm-1372 45h-1l1 1v-1zm-2 3h1l-1 1v-1zm2035 1h-1l1 1v-1zm23 0c3 3.26 4.61 7.74-1 9l-3 4 4-13zm-2335 5h-1l1 1v-1zm-156 1h1l-1 1v-1zm2486 1h1l-1 1v-1zm-2 3h1l-1 1v-1zm-23 14h-1l1 1v-1zm-2421 3h-1l1 1v-1zm2442 1h1l-1 1v-1zm-912 7h1l-1 1v-1zm-1517 4h-1l1 1v-1zm2391 8h-1l1 1v-1zm-2358 18l-2 3v-1l2-2zm2346 2h1l-1 1v-1zm2 1h1l-1 1v-1zm-2325 5h-1l1 1v-1zm2775 1h-1l1 1v-1zm-2819 3h1l-1 1v-1zm2375 10c1.85 3.4.29 3.83-3 4l3-4zm9 5h1l-1 1v-1zm-2290 9c1.7-2.14 1.61-2.48 4-1l-4 1zm7-3h1l-1 1v-1zm-37 3h1l-1 1v-1zm-504 8h1l-1 1v-1zm624 3h-1l1 1v-1zm2018 4h-1l1 1v-1zm-1996 2h1l-1 1v-1zm2158 1h-1l1 1v-1zm-2176 2l5-2c-1.68 2.53-2.01 2.89-5 2zm2015-2h1l-1 1v-1zm-1970 3h-1l1 1v-1zm-7 1h3v4l-3-4zm-43 3h1l-1 1v-1zm32 1l3-1v3l-3-2zm7 2h1l-1 1v-1zm-9 2h1l-1 1v-1zm1900 3h-1l1 1v-1zm-18 4c1.61-2.69 3.26-4.74 6-2l-3-1 1 3h-4zm7-1h1l-1 1v-1zm-1881 2h-1l1 1v-1zm1988 8h1l-1 1v-1zm-35 3c-4.43 1.68-5.09 3.45-8 7l8-2v-5zm-2600 4h1l-1 1v-1zm2605 1h-1l1 1v-1zm-2607 0c3.46 2.02 3.8 2.15 5 6l-5-6zm2555 1h-1l1 1v-1zm28 0h-1l1 1v-1zm-36 4l-9 5h9v-5zm-1588 89l-3 5c3.17-1.25 3.09-1.67 3-5zm1067 25h1l-1 1v-1zm-60 8c3.59.29 3.81.08 6 3l-6-3zm-15 4h-1l1 1v-1zm51 2h-1l1 1v-1zm3 3c-1.47-1.67-1.53-1.67-3 0h3zm-5 2h-1l1 1v-1zm169 5h-1l1 1v-1zm-812 12h-1l1 1v-1zm45 0h1l-1 1v-1zm-267 23c2.69-3.23 3.68-1.92 7 0v2l-6-1 3-1h-4zm-42-1h1l-1 1v-1zm-2 1c.52 2.33.12 2.17-2 3v-1l2-2zm1008 5h1l-1 1v-1zm-1011 7v0zm1081 0l2 9c-3.9-3.34-4.29-4.36-2-9zm-1037 4l3 3-3-3zm7 4l4 1-4-1zm1037 8h-1l1 1v-1zm894 3h-1l1 1v-1zm-2 1h-1l1 1v-1zm-52 13h-1l1 1v-1zm-1546 1h-1l1 1v-1zm1549 5h-1l1 1v-1zm-893 2h-1l1 1v-1zm864 3h-1l1 1v-1zm-853 1h-1l1 1v-1zm850 0l-4 5 5-1-1-4zm-851 1h-1l1 1v-1zm-1 2h-3l2 5 6-3c-3.12.28-3.15.57-5-2zm845 1h-1l1 1v-1zm-1534 2h-1l1 1v-1zm-16 6h-1l1 1v-1zm731 0h-1l1 1v-1zm1 1h-1l1 1v-1zm11 1h-1l1 1v-1zm-739 3l3-3-3 3zm728-2h-1l1 1v-1zm-1013 2h1l-1 1v-1zm283 0h1l-1 1v-1zm-212 2h-1l1 1v-1zm39 1l-3 3 4 2-1-5zm-1 6h-1l1 1v-1zm2 0h-1l1 1v-1zm-3 1h-1l1 1v-1zm152 2h-1l1 1v-1zm5 3h1l-1 1v-1zm1354 1h-1l1 1v-1zm-49 4h1l-1 1v-1zm-1656 6h-1l1 1v-1zm35 4h-1l1 1v-1zm-35 2h-1l1 1v-1zm1490 9l-5 1c2.32 2.48 3.34 1.51 5-1zm27 0h-1l1 1v-1zm-711 1h-1l1 1v-1zm2 1h-1l1 1v-1zm11 5h-1l1 1v-1zm-525 0l2 3h-2v-3zm3 0h1l-1 1v-1zm521 2h-1l1 1v-1zm-527 2h1l-1 1v-1zm536 3h-1l1 1v-1zm3 0h-1l1 1v-1zm-213 58v-38c-.02-11.31-3.84-16.62 4-18 1.11 6.56.62 5.77-1 12l4-3 2 6-5.49 9.18c-.55 1.69-.49 4.01-.68 5.82-.92 9.03-2.2 16.56 2.17 25l-5 1zm211-55h-1l1 1v-1zm6 0h-1l1 1v-1zm-144 9c-.89-4.13-.81-5.55-5-7l-9 6c2 11.14-.02 9.19-3 19l2 1 1-1-2 6-3-1c3.81 5.14 5.83 5.3 3 11l-1-3-4 1c2.14 6.77-.3 6.24-2.12 12l-1.36 7c-2.36 8.38-6.32 16.56-1.52 25l1-3 6 2c3.54-1.9 4.12.15 6 3l1-7 2 7c1.57-2.25 4.95.94 7 2 3.46-8.35 3.84-9.27 6.29-18 .99-3.53 2.63-6.32-1.29-8 1.38-1.66 6.73-5.77 3-7 5.58-8.67 5.56-11.05 7.55-21 .88-4.38 2.05-7.2-.55-11 1.16-.47 1.66-.32 2.49-1.59 1.06-1.62 2.29-10.4 1.91-12.29-1.09-5.43-11-5.82-15.4-7.12l-1 6zm152-3h-1l1 1v-1zm8 2h-1l1 1v-1zm-1 1h-1l1 1v-1zm4 1h-1l1 1v-1zm2 1h-1l1 1v-1zm-56 3h1l-1 1v-1zm-309 1h1l-1 1v-1zm315 3l2 3-2-3zm47-1h1l-1 1v-1zm-606 3h-1l1 1v-1zm-2 1h-1l1 1v-1zm564 0h-1l1 1v-1zm2 1h-1l1 1v-1zm-319 2l4 4-4-4zm-257 2h-1l1 1v-1zm1456 1h-1l1 1v-1zm-1825 3c1.59-2.13 1.57-2.15 4-1l-4 1zm-16 0h1l-1 1v-1zm5 0l4 2-2 4-2-6zm733 0h1l-1 1v-1zm-348 1h1l-1 1v-1zm438 0h1l-1 1v-1zm-164 1h1l-1 1v-1zm-5 1h3l1 4-4-4zm-665 1h2l-3 4 1-4zm11 2h1l-1 1v-1zm-47 1l3 5-3-5zm868 1h-1l1 1v-1zm-26 2h1l-1 1v-1zm-138 1l3 3-3-3zm7 5l4-2-3 3-1-1zm-701-1h1l-1 1v-1zm-3 1h1l-1 1v-1zm-15 2h1l-1 1v-1zm699 0h1l-1 1v-1zm87 8h1l-1 1v-1zm32 1c3.71 2.35 3.64 2.91 5 7l-3 1-2-8zm-32 2h1l-1 1v-1zm-115 2h-1l1 1v-1zm107-1h1l-1 1v-1zm-3 5l3 4-3-4zm-23 11h1l-1 1v-1zm135 8h1l-1 1v-1zm-198 3h-1l1 1v-1zm157 10l3-3-3 3z"/></svg>